<mxfile host="app.diagrams.net" modified="2021-01-15T13:58:09.421Z" agent="5.0 (X11; Linux x86_64) AppleWebKit/537.36 (KHTML, like Gecko) Chrome/87.0.4280.141 Safari/537.36" etag="5SPkPdNzJ9VuoGohdfFF" version="14.2.2" type="github" pages="2">
  <diagram id="Re2_eKQuALezutpp5Ufv" name="Page-1">
    <mxGraphModel dx="6814" dy="4084" grid="0" gridSize="10" guides="1" tooltips="1" connect="1" arrows="1" fold="1" page="1" pageScale="1" pageWidth="1169" pageHeight="827" math="0" shadow="0">
      <root>
        <mxCell id="0" />
        <mxCell id="1" parent="0" />
        <mxCell id="wPXH4mjbis2pNeKBEpg1-1" value="" style="edgeStyle=orthogonalEdgeStyle;rounded=0;orthogonalLoop=1;jettySize=auto;html=1;endArrow=none;endFill=0;" parent="1" source="wPXH4mjbis2pNeKBEpg1-2" target="wPXH4mjbis2pNeKBEpg1-3" edge="1">
          <mxGeometry relative="1" as="geometry" />
        </mxCell>
        <mxCell id="wPXH4mjbis2pNeKBEpg1-2" value="Kafka" style="whiteSpace=wrap;html=1;aspect=fixed;" parent="1" vertex="1">
          <mxGeometry x="-1623" y="100" width="50" height="50" as="geometry" />
        </mxCell>
        <mxCell id="wPXH4mjbis2pNeKBEpg1-3" value="Kafka" style="whiteSpace=wrap;html=1;aspect=fixed;" parent="1" vertex="1">
          <mxGeometry x="-1623" y="686" width="50" height="50" as="geometry" />
        </mxCell>
        <mxCell id="wPXH4mjbis2pNeKBEpg1-4" value="" style="edgeStyle=orthogonalEdgeStyle;rounded=0;orthogonalLoop=1;jettySize=auto;html=1;endArrow=none;endFill=0;" parent="1" source="wPXH4mjbis2pNeKBEpg1-5" target="wPXH4mjbis2pNeKBEpg1-6" edge="1">
          <mxGeometry relative="1" as="geometry" />
        </mxCell>
        <mxCell id="wPXH4mjbis2pNeKBEpg1-5" value="filebeat" style="whiteSpace=wrap;html=1;aspect=fixed;" parent="1" vertex="1">
          <mxGeometry x="-1447" y="100" width="50" height="50" as="geometry" />
        </mxCell>
        <mxCell id="wPXH4mjbis2pNeKBEpg1-6" value="filebeat" style="whiteSpace=wrap;html=1;aspect=fixed;" parent="1" vertex="1">
          <mxGeometry x="-1447" y="686" width="50" height="50" as="geometry" />
        </mxCell>
        <mxCell id="wPXH4mjbis2pNeKBEpg1-7" value="" style="edgeStyle=orthogonalEdgeStyle;rounded=0;orthogonalLoop=1;jettySize=auto;html=1;endArrow=none;endFill=0;" parent="1" edge="1">
          <mxGeometry relative="1" as="geometry">
            <mxPoint x="-1697" y="149.9999999999999" as="sourcePoint" />
            <mxPoint x="-1697" y="710" as="targetPoint" />
          </mxGeometry>
        </mxCell>
        <mxCell id="wPXH4mjbis2pNeKBEpg1-8" value="Logstash" style="whiteSpace=wrap;html=1;aspect=fixed;" parent="1" vertex="1">
          <mxGeometry x="-1723" y="100" width="50" height="50" as="geometry" />
        </mxCell>
        <mxCell id="wPXH4mjbis2pNeKBEpg1-9" value="Logstash" style="whiteSpace=wrap;html=1;aspect=fixed;" parent="1" vertex="1">
          <mxGeometry x="-1723" y="686" width="50" height="50" as="geometry" />
        </mxCell>
        <mxCell id="wPXH4mjbis2pNeKBEpg1-10" value="" style="edgeStyle=orthogonalEdgeStyle;rounded=0;orthogonalLoop=1;jettySize=auto;html=1;endArrow=none;endFill=0;" parent="1" source="wPXH4mjbis2pNeKBEpg1-11" target="wPXH4mjbis2pNeKBEpg1-12" edge="1">
          <mxGeometry relative="1" as="geometry" />
        </mxCell>
        <mxCell id="wPXH4mjbis2pNeKBEpg1-11" value="Elastic" style="whiteSpace=wrap;html=1;aspect=fixed;" parent="1" vertex="1">
          <mxGeometry x="-1823" y="100" width="50" height="50" as="geometry" />
        </mxCell>
        <mxCell id="wPXH4mjbis2pNeKBEpg1-12" value="Elastic" style="whiteSpace=wrap;html=1;aspect=fixed;" parent="1" vertex="1">
          <mxGeometry x="-1823" y="686" width="50" height="50" as="geometry" />
        </mxCell>
        <mxCell id="wPXH4mjbis2pNeKBEpg1-13" value="" style="edgeStyle=orthogonalEdgeStyle;rounded=0;orthogonalLoop=1;jettySize=auto;html=1;endArrow=none;endFill=0;" parent="1" edge="1">
          <mxGeometry relative="1" as="geometry">
            <mxPoint x="-2155" y="149.9999999999999" as="sourcePoint" />
          </mxGeometry>
        </mxCell>
        <mxCell id="wPXH4mjbis2pNeKBEpg1-16" value="" style="edgeStyle=orthogonalEdgeStyle;rounded=0;orthogonalLoop=1;jettySize=auto;html=1;endArrow=none;endFill=0;" parent="1" source="wPXH4mjbis2pNeKBEpg1-17" target="wPXH4mjbis2pNeKBEpg1-18" edge="1">
          <mxGeometry relative="1" as="geometry" />
        </mxCell>
        <mxCell id="wPXH4mjbis2pNeKBEpg1-17" value="Conf&lt;br&gt;Manager" style="whiteSpace=wrap;html=1;aspect=fixed;" parent="1" vertex="1">
          <mxGeometry x="-2105" y="100" width="50" height="50" as="geometry" />
        </mxCell>
        <mxCell id="wPXH4mjbis2pNeKBEpg1-18" value="Conf&lt;br&gt;Manager" style="whiteSpace=wrap;html=1;aspect=fixed;" parent="1" vertex="1">
          <mxGeometry x="-2105" y="686" width="50" height="50" as="geometry" />
        </mxCell>
        <mxCell id="wPXH4mjbis2pNeKBEpg1-19" value="" style="endArrow=classic;html=1;strokeColor=#000000;" parent="1" edge="1">
          <mxGeometry width="50" height="50" relative="1" as="geometry">
            <mxPoint x="-2075" y="241" as="sourcePoint" />
            <mxPoint x="-1700" y="241" as="targetPoint" />
          </mxGeometry>
        </mxCell>
        <mxCell id="wPXH4mjbis2pNeKBEpg1-20" value="Configure pipeline" style="text;html=1;align=center;verticalAlign=middle;resizable=0;points=[];labelBackgroundColor=#ffffff;" parent="wPXH4mjbis2pNeKBEpg1-19" vertex="1" connectable="0">
          <mxGeometry x="0.2341" y="1" relative="1" as="geometry">
            <mxPoint x="-146" as="offset" />
          </mxGeometry>
        </mxCell>
        <mxCell id="wPXH4mjbis2pNeKBEpg1-21" value="" style="endArrow=classic;html=1;fontColor=#B0B0B0;" parent="1" edge="1">
          <mxGeometry width="50" height="50" relative="1" as="geometry">
            <mxPoint x="-2075" y="198" as="sourcePoint" />
            <mxPoint x="-1430" y="198" as="targetPoint" />
          </mxGeometry>
        </mxCell>
        <mxCell id="wPXH4mjbis2pNeKBEpg1-22" value="&lt;font color=&quot;#000000&quot;&gt;Create topic list errorlevel&lt;/font&gt;" style="text;html=1;align=center;verticalAlign=middle;resizable=0;points=[];labelBackgroundColor=#ffffff;fontColor=#B0B0B0;" parent="wPXH4mjbis2pNeKBEpg1-21" vertex="1" connectable="0">
          <mxGeometry x="0.1943" y="1" relative="1" as="geometry">
            <mxPoint x="-300" as="offset" />
          </mxGeometry>
        </mxCell>
        <mxCell id="wPXH4mjbis2pNeKBEpg1-25" value="" style="edgeStyle=orthogonalEdgeStyle;rounded=0;orthogonalLoop=1;jettySize=auto;html=1;endArrow=none;endFill=0;" parent="1" source="wPXH4mjbis2pNeKBEpg1-26" target="wPXH4mjbis2pNeKBEpg1-27" edge="1">
          <mxGeometry relative="1" as="geometry" />
        </mxCell>
        <mxCell id="wPXH4mjbis2pNeKBEpg1-26" value="Resource" style="whiteSpace=wrap;html=1;aspect=fixed;" parent="1" vertex="1">
          <mxGeometry x="-1265" y="100" width="50" height="50" as="geometry" />
        </mxCell>
        <mxCell id="wPXH4mjbis2pNeKBEpg1-27" value="Resource" style="whiteSpace=wrap;html=1;aspect=fixed;" parent="1" vertex="1">
          <mxGeometry x="-1265" y="686" width="50" height="50" as="geometry" />
        </mxCell>
        <mxCell id="wPXH4mjbis2pNeKBEpg1-28" value="" style="endArrow=none;html=1;strokeColor=#000000;endFill=0;startFill=1;startArrow=classic;" parent="1" edge="1">
          <mxGeometry width="50" height="50" relative="1" as="geometry">
            <mxPoint x="-1417" y="279" as="sourcePoint" />
            <mxPoint x="-1247" y="279" as="targetPoint" />
            <Array as="points">
              <mxPoint x="-1357" y="279" />
            </Array>
          </mxGeometry>
        </mxCell>
        <mxCell id="wPXH4mjbis2pNeKBEpg1-29" value="Log event" style="text;html=1;align=center;verticalAlign=middle;resizable=0;points=[];labelBackgroundColor=#ffffff;" parent="wPXH4mjbis2pNeKBEpg1-28" vertex="1" connectable="0">
          <mxGeometry x="0.1943" y="1" relative="1" as="geometry">
            <mxPoint x="-12.86" as="offset" />
          </mxGeometry>
        </mxCell>
        <mxCell id="wPXH4mjbis2pNeKBEpg1-30" value="" style="endArrow=none;html=1;strokeColor=#000000;endFill=0;startArrow=classic;startFill=1;" parent="1" edge="1">
          <mxGeometry width="50" height="50" relative="1" as="geometry">
            <mxPoint x="-1591" y="321" as="sourcePoint" />
            <mxPoint x="-1430" y="321" as="targetPoint" />
          </mxGeometry>
        </mxCell>
        <mxCell id="wPXH4mjbis2pNeKBEpg1-31" value="Push event" style="text;html=1;align=center;verticalAlign=middle;resizable=0;points=[];labelBackgroundColor=#ffffff;" parent="wPXH4mjbis2pNeKBEpg1-30" vertex="1" connectable="0">
          <mxGeometry x="0.1943" y="1" relative="1" as="geometry">
            <mxPoint x="4" as="offset" />
          </mxGeometry>
        </mxCell>
        <mxCell id="wPXH4mjbis2pNeKBEpg1-32" value="" style="endArrow=none;html=1;strokeColor=#000000;endFill=0;startArrow=classic;startFill=1;" parent="1" edge="1">
          <mxGeometry width="50" height="50" relative="1" as="geometry">
            <mxPoint x="-1693" y="359" as="sourcePoint" />
            <mxPoint x="-1603" y="359" as="targetPoint" />
            <Array as="points">
              <mxPoint x="-1643" y="359" />
              <mxPoint x="-1623" y="359" />
            </Array>
          </mxGeometry>
        </mxCell>
        <mxCell id="wPXH4mjbis2pNeKBEpg1-33" value="Push event" style="text;html=1;align=center;verticalAlign=middle;resizable=0;points=[];labelBackgroundColor=#ffffff;" parent="wPXH4mjbis2pNeKBEpg1-32" vertex="1" connectable="0">
          <mxGeometry x="0.1943" y="1" relative="1" as="geometry">
            <mxPoint x="-12.86" as="offset" />
          </mxGeometry>
        </mxCell>
        <mxCell id="wPXH4mjbis2pNeKBEpg1-34" value="" style="endArrow=none;html=1;strokeColor=#000000;endFill=0;startArrow=classic;startFill=1;" parent="1" edge="1">
          <mxGeometry width="50" height="50" relative="1" as="geometry">
            <mxPoint x="-1793" y="409" as="sourcePoint" />
            <mxPoint x="-1703" y="409" as="targetPoint" />
          </mxGeometry>
        </mxCell>
        <mxCell id="wPXH4mjbis2pNeKBEpg1-35" value="Index event" style="text;html=1;align=center;verticalAlign=middle;resizable=0;points=[];labelBackgroundColor=#ffffff;" parent="wPXH4mjbis2pNeKBEpg1-34" vertex="1" connectable="0">
          <mxGeometry x="0.1943" y="1" relative="1" as="geometry">
            <mxPoint x="-2.8599999999999994" y="-6" as="offset" />
          </mxGeometry>
        </mxCell>
        <mxCell id="wPXH4mjbis2pNeKBEpg1-36" value="" style="endArrow=none;html=1;strokeColor=#000000;endFill=0;startFill=1;startArrow=classic;" parent="1" edge="1">
          <mxGeometry width="50" height="50" relative="1" as="geometry">
            <mxPoint x="-2230" y="556" as="sourcePoint" />
            <mxPoint x="-1910" y="556" as="targetPoint" />
          </mxGeometry>
        </mxCell>
        <mxCell id="wPXH4mjbis2pNeKBEpg1-37" value="alert" style="text;html=1;align=center;verticalAlign=middle;resizable=0;points=[];labelBackgroundColor=#ffffff;" parent="wPXH4mjbis2pNeKBEpg1-36" vertex="1" connectable="0">
          <mxGeometry x="0.1943" y="1" relative="1" as="geometry">
            <mxPoint x="49" y="1" as="offset" />
          </mxGeometry>
        </mxCell>
        <mxCell id="neoo7o6oHTqreek1lL6x-1" value="" style="edgeStyle=orthogonalEdgeStyle;rounded=0;orthogonalLoop=1;jettySize=auto;html=1;endArrow=none;endFill=0;" parent="1" source="neoo7o6oHTqreek1lL6x-2" target="neoo7o6oHTqreek1lL6x-3" edge="1">
          <mxGeometry relative="1" as="geometry" />
        </mxCell>
        <mxCell id="neoo7o6oHTqreek1lL6x-2" value="Alert&lt;br&gt;Manager" style="whiteSpace=wrap;html=1;aspect=fixed;" parent="1" vertex="1">
          <mxGeometry x="-2260" y="100" width="50" height="50" as="geometry" />
        </mxCell>
        <mxCell id="neoo7o6oHTqreek1lL6x-3" value="Alert&lt;br&gt;Manager" style="whiteSpace=wrap;html=1;aspect=fixed;" parent="1" vertex="1">
          <mxGeometry x="-2260" y="686" width="50" height="50" as="geometry" />
        </mxCell>
        <mxCell id="neoo7o6oHTqreek1lL6x-4" value="" style="edgeStyle=orthogonalEdgeStyle;rounded=0;orthogonalLoop=1;jettySize=auto;html=1;endArrow=none;endFill=0;" parent="1" source="neoo7o6oHTqreek1lL6x-5" target="neoo7o6oHTqreek1lL6x-6" edge="1">
          <mxGeometry relative="1" as="geometry" />
        </mxCell>
        <mxCell id="neoo7o6oHTqreek1lL6x-5" value="Elast Alert" style="whiteSpace=wrap;html=1;aspect=fixed;" parent="1" vertex="1">
          <mxGeometry x="-1930" y="100" width="50" height="50" as="geometry" />
        </mxCell>
        <mxCell id="neoo7o6oHTqreek1lL6x-6" value="Elast Alert" style="whiteSpace=wrap;html=1;aspect=fixed;" parent="1" vertex="1">
          <mxGeometry x="-1930" y="686" width="50" height="50" as="geometry" />
        </mxCell>
        <mxCell id="neoo7o6oHTqreek1lL6x-7" value="" style="endArrow=classic;html=1;strokeColor=#000000;" parent="1" edge="1">
          <mxGeometry width="50" height="50" relative="1" as="geometry">
            <mxPoint x="-2230" y="411" as="sourcePoint" />
            <mxPoint x="-1910" y="411" as="targetPoint" />
          </mxGeometry>
        </mxCell>
        <mxCell id="neoo7o6oHTqreek1lL6x-8" value="Configure alert rule" style="text;html=1;align=center;verticalAlign=middle;resizable=0;points=[];labelBackgroundColor=#ffffff;" parent="neoo7o6oHTqreek1lL6x-7" vertex="1" connectable="0">
          <mxGeometry x="0.2341" y="1" relative="1" as="geometry">
            <mxPoint x="-126" as="offset" />
          </mxGeometry>
        </mxCell>
        <mxCell id="neoo7o6oHTqreek1lL6x-10" value="" style="endArrow=none;html=1;strokeColor=#000000;endFill=0;startArrow=classic;startFill=1;" parent="1" edge="1">
          <mxGeometry width="50" height="50" relative="1" as="geometry">
            <mxPoint x="-1800" y="543" as="sourcePoint" />
            <mxPoint x="-1900" y="543" as="targetPoint" />
            <Array as="points" />
          </mxGeometry>
        </mxCell>
        <mxCell id="neoo7o6oHTqreek1lL6x-12" value="check&amp;nbsp; index" style="edgeLabel;html=1;align=center;verticalAlign=middle;resizable=0;points=[];" parent="neoo7o6oHTqreek1lL6x-10" vertex="1" connectable="0">
          <mxGeometry x="0.24" relative="1" as="geometry">
            <mxPoint as="offset" />
          </mxGeometry>
        </mxCell>
        <mxCell id="YgYwu3XMY0mxEqjxL5U3-3" value="" style="edgeStyle=orthogonalEdgeStyle;rounded=0;orthogonalLoop=1;jettySize=auto;html=1;endArrow=none;endFill=0;" parent="1" source="YgYwu3XMY0mxEqjxL5U3-4" target="YgYwu3XMY0mxEqjxL5U3-5" edge="1">
          <mxGeometry relative="1" as="geometry" />
        </mxCell>
        <mxCell id="YgYwu3XMY0mxEqjxL5U3-4" value="Kafka" style="whiteSpace=wrap;html=1;aspect=fixed;" parent="1" vertex="1">
          <mxGeometry x="-1608" y="1727" width="50" height="50" as="geometry" />
        </mxCell>
        <mxCell id="YgYwu3XMY0mxEqjxL5U3-5" value="Kafka" style="whiteSpace=wrap;html=1;aspect=fixed;" parent="1" vertex="1">
          <mxGeometry x="-1608" y="2313" width="50" height="50" as="geometry" />
        </mxCell>
        <mxCell id="YgYwu3XMY0mxEqjxL5U3-6" value="" style="edgeStyle=orthogonalEdgeStyle;rounded=0;orthogonalLoop=1;jettySize=auto;html=1;endArrow=none;endFill=0;" parent="1" source="YgYwu3XMY0mxEqjxL5U3-7" target="YgYwu3XMY0mxEqjxL5U3-8" edge="1">
          <mxGeometry relative="1" as="geometry" />
        </mxCell>
        <mxCell id="YgYwu3XMY0mxEqjxL5U3-7" value="filebeat" style="whiteSpace=wrap;html=1;aspect=fixed;" parent="1" vertex="1">
          <mxGeometry x="-1432" y="1727" width="50" height="50" as="geometry" />
        </mxCell>
        <mxCell id="YgYwu3XMY0mxEqjxL5U3-8" value="filebeat" style="whiteSpace=wrap;html=1;aspect=fixed;" parent="1" vertex="1">
          <mxGeometry x="-1432" y="2313" width="50" height="50" as="geometry" />
        </mxCell>
        <mxCell id="YgYwu3XMY0mxEqjxL5U3-9" value="" style="edgeStyle=orthogonalEdgeStyle;rounded=0;orthogonalLoop=1;jettySize=auto;html=1;endArrow=none;endFill=0;" parent="1" edge="1">
          <mxGeometry relative="1" as="geometry">
            <mxPoint x="-1682" y="1777" as="sourcePoint" />
            <mxPoint x="-1682" y="2337" as="targetPoint" />
          </mxGeometry>
        </mxCell>
        <mxCell id="YgYwu3XMY0mxEqjxL5U3-10" value="Logstash" style="whiteSpace=wrap;html=1;aspect=fixed;" parent="1" vertex="1">
          <mxGeometry x="-1708" y="1727" width="50" height="50" as="geometry" />
        </mxCell>
        <mxCell id="YgYwu3XMY0mxEqjxL5U3-11" value="Logstash" style="whiteSpace=wrap;html=1;aspect=fixed;" parent="1" vertex="1">
          <mxGeometry x="-1708" y="2313" width="50" height="50" as="geometry" />
        </mxCell>
        <mxCell id="YgYwu3XMY0mxEqjxL5U3-12" value="" style="edgeStyle=orthogonalEdgeStyle;rounded=0;orthogonalLoop=1;jettySize=auto;html=1;endArrow=none;endFill=0;" parent="1" source="YgYwu3XMY0mxEqjxL5U3-13" target="YgYwu3XMY0mxEqjxL5U3-14" edge="1">
          <mxGeometry relative="1" as="geometry" />
        </mxCell>
        <mxCell id="YgYwu3XMY0mxEqjxL5U3-13" value="Elastic" style="whiteSpace=wrap;html=1;aspect=fixed;" parent="1" vertex="1">
          <mxGeometry x="-1808" y="1727" width="50" height="50" as="geometry" />
        </mxCell>
        <mxCell id="YgYwu3XMY0mxEqjxL5U3-14" value="Elastic" style="whiteSpace=wrap;html=1;aspect=fixed;" parent="1" vertex="1">
          <mxGeometry x="-1808" y="2313" width="50" height="50" as="geometry" />
        </mxCell>
        <mxCell id="YgYwu3XMY0mxEqjxL5U3-15" value="" style="edgeStyle=orthogonalEdgeStyle;rounded=0;orthogonalLoop=1;jettySize=auto;html=1;endArrow=none;endFill=0;" parent="1" source="YgYwu3XMY0mxEqjxL5U3-16" target="YgYwu3XMY0mxEqjxL5U3-17" edge="1">
          <mxGeometry relative="1" as="geometry" />
        </mxCell>
        <mxCell id="YgYwu3XMY0mxEqjxL5U3-16" value="Conf&lt;br&gt;Manager" style="whiteSpace=wrap;html=1;aspect=fixed;" parent="1" vertex="1">
          <mxGeometry x="-2090" y="1727" width="50" height="50" as="geometry" />
        </mxCell>
        <mxCell id="YgYwu3XMY0mxEqjxL5U3-17" value="Conf&lt;br&gt;Manager" style="whiteSpace=wrap;html=1;aspect=fixed;" parent="1" vertex="1">
          <mxGeometry x="-2090" y="2313" width="50" height="50" as="geometry" />
        </mxCell>
        <mxCell id="YgYwu3XMY0mxEqjxL5U3-18" value="" style="endArrow=classic;html=1;strokeColor=#000000;" parent="1" edge="1">
          <mxGeometry width="50" height="50" relative="1" as="geometry">
            <mxPoint x="-2060" y="1868" as="sourcePoint" />
            <mxPoint x="-1685" y="1868" as="targetPoint" />
          </mxGeometry>
        </mxCell>
        <mxCell id="YgYwu3XMY0mxEqjxL5U3-19" value="Configure pipeline" style="text;html=1;align=center;verticalAlign=middle;resizable=0;points=[];labelBackgroundColor=#ffffff;" parent="YgYwu3XMY0mxEqjxL5U3-18" vertex="1" connectable="0">
          <mxGeometry x="0.2341" y="1" relative="1" as="geometry">
            <mxPoint x="-146" as="offset" />
          </mxGeometry>
        </mxCell>
        <mxCell id="YgYwu3XMY0mxEqjxL5U3-20" value="" style="endArrow=classic;html=1;fontColor=#B0B0B0;" parent="1" edge="1">
          <mxGeometry width="50" height="50" relative="1" as="geometry">
            <mxPoint x="-2060" y="1825" as="sourcePoint" />
            <mxPoint x="-1415" y="1825" as="targetPoint" />
          </mxGeometry>
        </mxCell>
        <mxCell id="YgYwu3XMY0mxEqjxL5U3-21" value="&lt;font color=&quot;#000000&quot;&gt;Create topic list errorlevel&lt;/font&gt;" style="text;html=1;align=center;verticalAlign=middle;resizable=0;points=[];labelBackgroundColor=#ffffff;fontColor=#B0B0B0;" parent="YgYwu3XMY0mxEqjxL5U3-20" vertex="1" connectable="0">
          <mxGeometry x="0.1943" y="1" relative="1" as="geometry">
            <mxPoint x="-300" as="offset" />
          </mxGeometry>
        </mxCell>
        <mxCell id="YgYwu3XMY0mxEqjxL5U3-22" value="" style="edgeStyle=orthogonalEdgeStyle;rounded=0;orthogonalLoop=1;jettySize=auto;html=1;endArrow=none;endFill=0;" parent="1" source="YgYwu3XMY0mxEqjxL5U3-23" target="YgYwu3XMY0mxEqjxL5U3-24" edge="1">
          <mxGeometry relative="1" as="geometry" />
        </mxCell>
        <mxCell id="YgYwu3XMY0mxEqjxL5U3-23" value="Resource" style="whiteSpace=wrap;html=1;aspect=fixed;" parent="1" vertex="1">
          <mxGeometry x="-1250" y="1727" width="50" height="50" as="geometry" />
        </mxCell>
        <mxCell id="YgYwu3XMY0mxEqjxL5U3-24" value="Resource" style="whiteSpace=wrap;html=1;aspect=fixed;" parent="1" vertex="1">
          <mxGeometry x="-1250" y="2313" width="50" height="50" as="geometry" />
        </mxCell>
        <mxCell id="YgYwu3XMY0mxEqjxL5U3-25" value="" style="endArrow=none;html=1;strokeColor=#000000;endFill=0;startFill=1;startArrow=classic;" parent="1" edge="1">
          <mxGeometry width="50" height="50" relative="1" as="geometry">
            <mxPoint x="-1402" y="1906" as="sourcePoint" />
            <mxPoint x="-1232" y="1906" as="targetPoint" />
            <Array as="points">
              <mxPoint x="-1342" y="1906" />
            </Array>
          </mxGeometry>
        </mxCell>
        <mxCell id="YgYwu3XMY0mxEqjxL5U3-26" value="Log event" style="text;html=1;align=center;verticalAlign=middle;resizable=0;points=[];labelBackgroundColor=#ffffff;" parent="YgYwu3XMY0mxEqjxL5U3-25" vertex="1" connectable="0">
          <mxGeometry x="0.1943" y="1" relative="1" as="geometry">
            <mxPoint x="-12.86" as="offset" />
          </mxGeometry>
        </mxCell>
        <mxCell id="YgYwu3XMY0mxEqjxL5U3-27" value="" style="endArrow=none;html=1;strokeColor=#000000;endFill=0;startArrow=classic;startFill=1;" parent="1" edge="1">
          <mxGeometry width="50" height="50" relative="1" as="geometry">
            <mxPoint x="-1576" y="1948" as="sourcePoint" />
            <mxPoint x="-1415" y="1948" as="targetPoint" />
          </mxGeometry>
        </mxCell>
        <mxCell id="YgYwu3XMY0mxEqjxL5U3-28" value="Push event" style="text;html=1;align=center;verticalAlign=middle;resizable=0;points=[];labelBackgroundColor=#ffffff;" parent="YgYwu3XMY0mxEqjxL5U3-27" vertex="1" connectable="0">
          <mxGeometry x="0.1943" y="1" relative="1" as="geometry">
            <mxPoint x="4" as="offset" />
          </mxGeometry>
        </mxCell>
        <mxCell id="YgYwu3XMY0mxEqjxL5U3-29" value="" style="endArrow=none;html=1;strokeColor=#000000;endFill=0;startArrow=classic;startFill=1;" parent="1" edge="1">
          <mxGeometry width="50" height="50" relative="1" as="geometry">
            <mxPoint x="-1678" y="1986" as="sourcePoint" />
            <mxPoint x="-1588" y="1986" as="targetPoint" />
            <Array as="points">
              <mxPoint x="-1628" y="1986" />
              <mxPoint x="-1608" y="1986" />
            </Array>
          </mxGeometry>
        </mxCell>
        <mxCell id="YgYwu3XMY0mxEqjxL5U3-30" value="Push event" style="text;html=1;align=center;verticalAlign=middle;resizable=0;points=[];labelBackgroundColor=#ffffff;" parent="YgYwu3XMY0mxEqjxL5U3-29" vertex="1" connectable="0">
          <mxGeometry x="0.1943" y="1" relative="1" as="geometry">
            <mxPoint x="-12.86" as="offset" />
          </mxGeometry>
        </mxCell>
        <mxCell id="YgYwu3XMY0mxEqjxL5U3-31" value="" style="endArrow=none;html=1;strokeColor=#000000;endFill=0;startArrow=classic;startFill=1;" parent="1" edge="1">
          <mxGeometry width="50" height="50" relative="1" as="geometry">
            <mxPoint x="-1778" y="2036" as="sourcePoint" />
            <mxPoint x="-1688" y="2036" as="targetPoint" />
          </mxGeometry>
        </mxCell>
        <mxCell id="YgYwu3XMY0mxEqjxL5U3-32" value="Index event" style="text;html=1;align=center;verticalAlign=middle;resizable=0;points=[];labelBackgroundColor=#ffffff;" parent="YgYwu3XMY0mxEqjxL5U3-31" vertex="1" connectable="0">
          <mxGeometry x="0.1943" y="1" relative="1" as="geometry">
            <mxPoint x="-2.8599999999999994" y="-6" as="offset" />
          </mxGeometry>
        </mxCell>
        <mxCell id="YgYwu3XMY0mxEqjxL5U3-33" value="" style="endArrow=none;html=1;strokeColor=#000000;endFill=0;startFill=1;startArrow=classic;" parent="1" edge="1">
          <mxGeometry width="50" height="50" relative="1" as="geometry">
            <mxPoint x="-2215" y="2183" as="sourcePoint" />
            <mxPoint x="-1895" y="2183" as="targetPoint" />
          </mxGeometry>
        </mxCell>
        <mxCell id="YgYwu3XMY0mxEqjxL5U3-34" value="alert" style="text;html=1;align=center;verticalAlign=middle;resizable=0;points=[];labelBackgroundColor=#ffffff;" parent="YgYwu3XMY0mxEqjxL5U3-33" vertex="1" connectable="0">
          <mxGeometry x="0.1943" y="1" relative="1" as="geometry">
            <mxPoint x="49" y="1" as="offset" />
          </mxGeometry>
        </mxCell>
        <mxCell id="YgYwu3XMY0mxEqjxL5U3-35" value="" style="edgeStyle=orthogonalEdgeStyle;rounded=0;orthogonalLoop=1;jettySize=auto;html=1;endArrow=none;endFill=0;" parent="1" source="YgYwu3XMY0mxEqjxL5U3-36" target="YgYwu3XMY0mxEqjxL5U3-37" edge="1">
          <mxGeometry relative="1" as="geometry" />
        </mxCell>
        <mxCell id="YgYwu3XMY0mxEqjxL5U3-36" value="Alert&lt;br&gt;Manager" style="whiteSpace=wrap;html=1;aspect=fixed;" parent="1" vertex="1">
          <mxGeometry x="-2245" y="1727" width="50" height="50" as="geometry" />
        </mxCell>
        <mxCell id="YgYwu3XMY0mxEqjxL5U3-37" value="Alert&lt;br&gt;Manager" style="whiteSpace=wrap;html=1;aspect=fixed;" parent="1" vertex="1">
          <mxGeometry x="-2245" y="2313" width="50" height="50" as="geometry" />
        </mxCell>
        <mxCell id="YgYwu3XMY0mxEqjxL5U3-38" value="" style="edgeStyle=orthogonalEdgeStyle;rounded=0;orthogonalLoop=1;jettySize=auto;html=1;endArrow=none;endFill=0;" parent="1" source="YgYwu3XMY0mxEqjxL5U3-39" target="YgYwu3XMY0mxEqjxL5U3-40" edge="1">
          <mxGeometry relative="1" as="geometry" />
        </mxCell>
        <mxCell id="YgYwu3XMY0mxEqjxL5U3-39" value="Elast Alert" style="whiteSpace=wrap;html=1;aspect=fixed;" parent="1" vertex="1">
          <mxGeometry x="-1915" y="1727" width="50" height="50" as="geometry" />
        </mxCell>
        <mxCell id="YgYwu3XMY0mxEqjxL5U3-40" value="Elast Alert" style="whiteSpace=wrap;html=1;aspect=fixed;" parent="1" vertex="1">
          <mxGeometry x="-1915" y="2313" width="50" height="50" as="geometry" />
        </mxCell>
        <mxCell id="YgYwu3XMY0mxEqjxL5U3-41" value="" style="endArrow=classic;html=1;strokeColor=#000000;" parent="1" edge="1">
          <mxGeometry width="50" height="50" relative="1" as="geometry">
            <mxPoint x="-2215" y="2038" as="sourcePoint" />
            <mxPoint x="-1895" y="2038" as="targetPoint" />
          </mxGeometry>
        </mxCell>
        <mxCell id="YgYwu3XMY0mxEqjxL5U3-42" value="Configure alert rule" style="text;html=1;align=center;verticalAlign=middle;resizable=0;points=[];labelBackgroundColor=#ffffff;" parent="YgYwu3XMY0mxEqjxL5U3-41" vertex="1" connectable="0">
          <mxGeometry x="0.2341" y="1" relative="1" as="geometry">
            <mxPoint x="-126" as="offset" />
          </mxGeometry>
        </mxCell>
        <mxCell id="YgYwu3XMY0mxEqjxL5U3-43" value="" style="endArrow=none;html=1;strokeColor=#000000;endFill=0;startArrow=classic;startFill=1;" parent="1" edge="1">
          <mxGeometry width="50" height="50" relative="1" as="geometry">
            <mxPoint x="-1785" y="2170" as="sourcePoint" />
            <mxPoint x="-1885" y="2170" as="targetPoint" />
            <Array as="points" />
          </mxGeometry>
        </mxCell>
        <mxCell id="YgYwu3XMY0mxEqjxL5U3-44" value="check&amp;nbsp; index" style="edgeLabel;html=1;align=center;verticalAlign=middle;resizable=0;points=[];" parent="YgYwu3XMY0mxEqjxL5U3-43" vertex="1" connectable="0">
          <mxGeometry x="0.24" relative="1" as="geometry">
            <mxPoint as="offset" />
          </mxGeometry>
        </mxCell>
        <mxCell id="YgYwu3XMY0mxEqjxL5U3-45" value="" style="edgeStyle=orthogonalEdgeStyle;rounded=0;orthogonalLoop=1;jettySize=auto;html=1;strokeColor=#000000;" parent="1" source="YgYwu3XMY0mxEqjxL5U3-47" target="YgYwu3XMY0mxEqjxL5U3-56" edge="1">
          <mxGeometry relative="1" as="geometry" />
        </mxCell>
        <mxCell id="YgYwu3XMY0mxEqjxL5U3-46" value="" style="edgeStyle=orthogonalEdgeStyle;rounded=0;orthogonalLoop=1;jettySize=auto;html=1;strokeColor=#000000;" parent="1" source="YgYwu3XMY0mxEqjxL5U3-47" target="YgYwu3XMY0mxEqjxL5U3-57" edge="1">
          <mxGeometry relative="1" as="geometry" />
        </mxCell>
        <mxCell id="YgYwu3XMY0mxEqjxL5U3-47" value="" style="ellipse;whiteSpace=wrap;html=1;" parent="1" vertex="1">
          <mxGeometry x="-1855" y="1297" width="78" height="60" as="geometry" />
        </mxCell>
        <mxCell id="YgYwu3XMY0mxEqjxL5U3-48" value="" style="edgeStyle=orthogonalEdgeStyle;rounded=0;orthogonalLoop=1;jettySize=auto;html=1;" parent="1" source="YgYwu3XMY0mxEqjxL5U3-49" target="YgYwu3XMY0mxEqjxL5U3-47" edge="1">
          <mxGeometry relative="1" as="geometry" />
        </mxCell>
        <mxCell id="YgYwu3XMY0mxEqjxL5U3-49" value="" style="html=1;shadow=0;dashed=0;align=center;verticalAlign=middle;shape=mxgraph.arrows2.jumpInArrow;dy=15;dx=38;arrowHead=55;" parent="1" vertex="1">
          <mxGeometry x="-2090" y="1347" width="100" height="100" as="geometry" />
        </mxCell>
        <mxCell id="YgYwu3XMY0mxEqjxL5U3-50" value="" style="edgeStyle=orthogonalEdgeStyle;rounded=0;orthogonalLoop=1;jettySize=auto;html=1;" parent="1" source="YgYwu3XMY0mxEqjxL5U3-51" target="YgYwu3XMY0mxEqjxL5U3-49" edge="1">
          <mxGeometry relative="1" as="geometry" />
        </mxCell>
        <mxCell id="YgYwu3XMY0mxEqjxL5U3-51" value="" style="shape=image;html=1;verticalLabelPosition=bottom;verticalAlign=top;imageAspect=0;image=img/clipart/Gear_128x128.png" parent="1" vertex="1">
          <mxGeometry x="-1075" y="1567" width="50" height="60" as="geometry" />
        </mxCell>
        <mxCell id="YgYwu3XMY0mxEqjxL5U3-52" value="" style="edgeStyle=orthogonalEdgeStyle;rounded=0;orthogonalLoop=1;jettySize=auto;html=1;" parent="1" source="YgYwu3XMY0mxEqjxL5U3-53" target="YgYwu3XMY0mxEqjxL5U3-51" edge="1">
          <mxGeometry relative="1" as="geometry" />
        </mxCell>
        <mxCell id="YgYwu3XMY0mxEqjxL5U3-53" value="" style="rhombus;whiteSpace=wrap;html=1;strokeWidth=2;fillWeight=-1;hachureGap=8;fillStyle=cross-hatch;fillColor=#006600;sketch=1;" parent="1" vertex="1">
          <mxGeometry x="-1382" y="1487" width="120" height="60" as="geometry" />
        </mxCell>
        <mxCell id="YgYwu3XMY0mxEqjxL5U3-54" value="Button" style="labelPosition=center;verticalLabelPosition=middle;align=center;html=1;shape=mxgraph.basic.shaded_button;dx=10;fillColor=#E6E6E6;strokeColor=none;" parent="1" vertex="1">
          <mxGeometry x="-1990" y="897" width="100" height="60" as="geometry" />
        </mxCell>
        <mxCell id="YgYwu3XMY0mxEqjxL5U3-55" style="edgeStyle=orthogonalEdgeStyle;rounded=0;orthogonalLoop=1;jettySize=auto;html=1;strokeColor=#000000;entryX=0.5;entryY=0;entryDx=0;entryDy=0;" parent="1" source="YgYwu3XMY0mxEqjxL5U3-56" target="YgYwu3XMY0mxEqjxL5U3-53" edge="1">
          <mxGeometry relative="1" as="geometry">
            <mxPoint x="-1375" y="1407" as="targetPoint" />
          </mxGeometry>
        </mxCell>
        <mxCell id="YgYwu3XMY0mxEqjxL5U3-56" value="" style="shape=mxgraph.bpmn.shape;html=1;verticalLabelPosition=bottom;labelBackgroundColor=#ffffff;verticalAlign=top;align=center;perimeter=ellipsePerimeter;outlineConnect=0;outline=boundInt;symbol=error;" parent="1" vertex="1">
          <mxGeometry x="-1455" y="1377" width="50" height="50" as="geometry" />
        </mxCell>
        <mxCell id="YgYwu3XMY0mxEqjxL5U3-57" value="" style="shape=parallelogram;perimeter=parallelogramPerimeter;whiteSpace=wrap;html=1;fixedSize=1;" parent="1" vertex="1">
          <mxGeometry x="-1658" y="1127" width="120" height="110" as="geometry" />
        </mxCell>
        <mxCell id="YgYwu3XMY0mxEqjxL5U3-58" value="" style="edgeStyle=orthogonalEdgeStyle;rounded=0;orthogonalLoop=1;jettySize=auto;html=1;strokeColor=#000000;" parent="1" source="YgYwu3XMY0mxEqjxL5U3-59" target="YgYwu3XMY0mxEqjxL5U3-65" edge="1">
          <mxGeometry relative="1" as="geometry" />
        </mxCell>
        <mxCell id="YgYwu3XMY0mxEqjxL5U3-59" value="" style="whiteSpace=wrap;html=1;shape=mxgraph.basic.isocube;isoAngle=15;" parent="1" vertex="1">
          <mxGeometry x="-2055" y="1017" width="100" height="100" as="geometry" />
        </mxCell>
        <mxCell id="YgYwu3XMY0mxEqjxL5U3-60" style="edgeStyle=orthogonalEdgeStyle;rounded=0;orthogonalLoop=1;jettySize=auto;html=1;entryX=0;entryY=0;entryDx=73.5;entryDy=0;entryPerimeter=0;" parent="1" source="YgYwu3XMY0mxEqjxL5U3-61" target="YgYwu3XMY0mxEqjxL5U3-66" edge="1">
          <mxGeometry relative="1" as="geometry" />
        </mxCell>
        <mxCell id="YgYwu3XMY0mxEqjxL5U3-61" value="" style="whiteSpace=wrap;html=1;shape=mxgraph.basic.isocube;isoAngle=15;" parent="1" vertex="1">
          <mxGeometry x="-2205" y="847" width="100" height="100" as="geometry" />
        </mxCell>
        <mxCell id="YgYwu3XMY0mxEqjxL5U3-62" style="edgeStyle=orthogonalEdgeStyle;rounded=0;orthogonalLoop=1;jettySize=auto;html=1;strokeColor=#000000;" parent="1" source="YgYwu3XMY0mxEqjxL5U3-63" edge="1">
          <mxGeometry relative="1" as="geometry">
            <mxPoint x="-1845" y="1527" as="targetPoint" />
          </mxGeometry>
        </mxCell>
        <mxCell id="YgYwu3XMY0mxEqjxL5U3-63" value="" style="shape=mxgraph.bpmn.script_task;html=1;outlineConnect=0;" parent="1" vertex="1">
          <mxGeometry x="-1905" y="1447" width="10" height="14" as="geometry" />
        </mxCell>
        <mxCell id="YgYwu3XMY0mxEqjxL5U3-64" value="" style="html=1;shadow=0;dashed=0;align=center;verticalAlign=middle;shape=mxgraph.arrows2.quadArrow;dy=10;dx=20;notch=24;arrowHead=10;" parent="1" vertex="1">
          <mxGeometry x="-2245" y="1427" width="100" height="100" as="geometry" />
        </mxCell>
        <mxCell id="YgYwu3XMY0mxEqjxL5U3-65" value="" style="ellipse;shape=cloud;whiteSpace=wrap;html=1;" parent="1" vertex="1">
          <mxGeometry x="-1828" y="1027" width="120" height="80" as="geometry" />
        </mxCell>
        <mxCell id="YgYwu3XMY0mxEqjxL5U3-66" value="" style="verticalLabelPosition=bottom;verticalAlign=top;html=1;shape=mxgraph.basic.pyramid;dx1=0.49;dx2=0;dy1=0.08;dy2=1;rotation=-60;" parent="1" vertex="1">
          <mxGeometry x="-1365" y="847" width="150" height="200" as="geometry" />
        </mxCell>
        <mxCell id="YgYwu3XMY0mxEqjxL5U3-67" style="edgeStyle=orthogonalEdgeStyle;rounded=0;orthogonalLoop=1;jettySize=auto;html=1;entryX=0.5;entryY=1;entryDx=0;entryDy=0;entryPerimeter=0;" parent="1" source="YgYwu3XMY0mxEqjxL5U3-68" target="YgYwu3XMY0mxEqjxL5U3-61" edge="1">
          <mxGeometry relative="1" as="geometry" />
        </mxCell>
        <mxCell id="YgYwu3XMY0mxEqjxL5U3-68" value="" style="verticalLabelPosition=bottom;verticalAlign=top;html=1;shape=mxgraph.basic.cone2;dx=0.5;dy=0.68;" parent="1" vertex="1">
          <mxGeometry x="-2205" y="1197" width="100" height="100" as="geometry" />
        </mxCell>
        <mxCell id="YgYwu3XMY0mxEqjxL5U3-69" value="" style="edgeStyle=orthogonalEdgeStyle;rounded=0;orthogonalLoop=1;jettySize=auto;html=1;endArrow=none;endFill=0;" parent="1" source="YgYwu3XMY0mxEqjxL5U3-70" target="YgYwu3XMY0mxEqjxL5U3-71" edge="1">
          <mxGeometry relative="1" as="geometry" />
        </mxCell>
        <mxCell id="YgYwu3XMY0mxEqjxL5U3-70" value="Kafka" style="whiteSpace=wrap;html=1;aspect=fixed;" parent="1" vertex="1">
          <mxGeometry x="-647" y="121" width="50" height="50" as="geometry" />
        </mxCell>
        <mxCell id="YgYwu3XMY0mxEqjxL5U3-71" value="Kafka" style="whiteSpace=wrap;html=1;aspect=fixed;" parent="1" vertex="1">
          <mxGeometry x="-647" y="707" width="50" height="50" as="geometry" />
        </mxCell>
        <mxCell id="YgYwu3XMY0mxEqjxL5U3-72" value="" style="edgeStyle=orthogonalEdgeStyle;rounded=0;orthogonalLoop=1;jettySize=auto;html=1;endArrow=none;endFill=0;" parent="1" source="YgYwu3XMY0mxEqjxL5U3-73" target="YgYwu3XMY0mxEqjxL5U3-74" edge="1">
          <mxGeometry relative="1" as="geometry" />
        </mxCell>
        <mxCell id="YgYwu3XMY0mxEqjxL5U3-73" value="filebeat" style="whiteSpace=wrap;html=1;aspect=fixed;" parent="1" vertex="1">
          <mxGeometry x="-471" y="121" width="50" height="50" as="geometry" />
        </mxCell>
        <mxCell id="YgYwu3XMY0mxEqjxL5U3-74" value="filebeat" style="whiteSpace=wrap;html=1;aspect=fixed;" parent="1" vertex="1">
          <mxGeometry x="-471" y="707" width="50" height="50" as="geometry" />
        </mxCell>
        <mxCell id="YgYwu3XMY0mxEqjxL5U3-75" value="" style="edgeStyle=orthogonalEdgeStyle;rounded=0;orthogonalLoop=1;jettySize=auto;html=1;endArrow=none;endFill=0;" parent="1" edge="1">
          <mxGeometry relative="1" as="geometry">
            <mxPoint x="-721" y="171" as="sourcePoint" />
            <mxPoint x="-721" y="731" as="targetPoint" />
          </mxGeometry>
        </mxCell>
        <mxCell id="YgYwu3XMY0mxEqjxL5U3-76" value="Logstash" style="whiteSpace=wrap;html=1;aspect=fixed;" parent="1" vertex="1">
          <mxGeometry x="-747" y="121" width="50" height="50" as="geometry" />
        </mxCell>
        <mxCell id="YgYwu3XMY0mxEqjxL5U3-77" value="Logstash" style="whiteSpace=wrap;html=1;aspect=fixed;" parent="1" vertex="1">
          <mxGeometry x="-747" y="707" width="50" height="50" as="geometry" />
        </mxCell>
        <mxCell id="YgYwu3XMY0mxEqjxL5U3-78" value="" style="edgeStyle=orthogonalEdgeStyle;rounded=0;orthogonalLoop=1;jettySize=auto;html=1;endArrow=none;endFill=0;" parent="1" source="YgYwu3XMY0mxEqjxL5U3-79" target="YgYwu3XMY0mxEqjxL5U3-80" edge="1">
          <mxGeometry relative="1" as="geometry" />
        </mxCell>
        <mxCell id="YgYwu3XMY0mxEqjxL5U3-79" value="Elastic" style="whiteSpace=wrap;html=1;aspect=fixed;" parent="1" vertex="1">
          <mxGeometry x="-847" y="121" width="50" height="50" as="geometry" />
        </mxCell>
        <mxCell id="YgYwu3XMY0mxEqjxL5U3-80" value="Elastic" style="whiteSpace=wrap;html=1;aspect=fixed;" parent="1" vertex="1">
          <mxGeometry x="-847" y="707" width="50" height="50" as="geometry" />
        </mxCell>
        <mxCell id="YgYwu3XMY0mxEqjxL5U3-81" value="" style="edgeStyle=orthogonalEdgeStyle;rounded=0;orthogonalLoop=1;jettySize=auto;html=1;endArrow=none;endFill=0;" parent="1" source="YgYwu3XMY0mxEqjxL5U3-82" target="YgYwu3XMY0mxEqjxL5U3-83" edge="1">
          <mxGeometry relative="1" as="geometry" />
        </mxCell>
        <mxCell id="YgYwu3XMY0mxEqjxL5U3-82" value="Conf&lt;br&gt;Manager" style="whiteSpace=wrap;html=1;aspect=fixed;" parent="1" vertex="1">
          <mxGeometry x="-1129" y="121" width="50" height="50" as="geometry" />
        </mxCell>
        <mxCell id="YgYwu3XMY0mxEqjxL5U3-83" value="Conf&lt;br&gt;Manager" style="whiteSpace=wrap;html=1;aspect=fixed;" parent="1" vertex="1">
          <mxGeometry x="-1129" y="707" width="50" height="50" as="geometry" />
        </mxCell>
        <mxCell id="YgYwu3XMY0mxEqjxL5U3-84" value="" style="endArrow=classic;html=1;strokeColor=#000000;" parent="1" edge="1">
          <mxGeometry width="50" height="50" relative="1" as="geometry">
            <mxPoint x="-1099" y="262" as="sourcePoint" />
            <mxPoint x="-724" y="262" as="targetPoint" />
          </mxGeometry>
        </mxCell>
        <mxCell id="YgYwu3XMY0mxEqjxL5U3-85" value="Configure pipeline" style="text;html=1;align=center;verticalAlign=middle;resizable=0;points=[];labelBackgroundColor=#ffffff;" parent="YgYwu3XMY0mxEqjxL5U3-84" vertex="1" connectable="0">
          <mxGeometry x="0.2341" y="1" relative="1" as="geometry">
            <mxPoint x="-146" as="offset" />
          </mxGeometry>
        </mxCell>
        <mxCell id="YgYwu3XMY0mxEqjxL5U3-86" value="" style="endArrow=classic;html=1;fontColor=#B0B0B0;" parent="1" edge="1">
          <mxGeometry width="50" height="50" relative="1" as="geometry">
            <mxPoint x="-1099" y="219" as="sourcePoint" />
            <mxPoint x="-454" y="219" as="targetPoint" />
          </mxGeometry>
        </mxCell>
        <mxCell id="YgYwu3XMY0mxEqjxL5U3-87" value="&lt;font color=&quot;#000000&quot;&gt;Create topic list errorlevel&lt;/font&gt;" style="text;html=1;align=center;verticalAlign=middle;resizable=0;points=[];labelBackgroundColor=#ffffff;fontColor=#B0B0B0;" parent="YgYwu3XMY0mxEqjxL5U3-86" vertex="1" connectable="0">
          <mxGeometry x="0.1943" y="1" relative="1" as="geometry">
            <mxPoint x="-300" as="offset" />
          </mxGeometry>
        </mxCell>
        <mxCell id="YgYwu3XMY0mxEqjxL5U3-88" value="" style="edgeStyle=orthogonalEdgeStyle;rounded=0;orthogonalLoop=1;jettySize=auto;html=1;endArrow=none;endFill=0;" parent="1" source="YgYwu3XMY0mxEqjxL5U3-89" target="YgYwu3XMY0mxEqjxL5U3-90" edge="1">
          <mxGeometry relative="1" as="geometry" />
        </mxCell>
        <mxCell id="YgYwu3XMY0mxEqjxL5U3-89" value="Resource" style="whiteSpace=wrap;html=1;aspect=fixed;" parent="1" vertex="1">
          <mxGeometry x="-289" y="121" width="50" height="50" as="geometry" />
        </mxCell>
        <mxCell id="YgYwu3XMY0mxEqjxL5U3-90" value="Resource" style="whiteSpace=wrap;html=1;aspect=fixed;" parent="1" vertex="1">
          <mxGeometry x="-289" y="707" width="50" height="50" as="geometry" />
        </mxCell>
        <mxCell id="YgYwu3XMY0mxEqjxL5U3-91" value="" style="endArrow=none;html=1;strokeColor=#000000;endFill=0;startFill=1;startArrow=classic;" parent="1" edge="1">
          <mxGeometry width="50" height="50" relative="1" as="geometry">
            <mxPoint x="-441" y="300" as="sourcePoint" />
            <mxPoint x="-271" y="300" as="targetPoint" />
            <Array as="points">
              <mxPoint x="-381" y="300" />
            </Array>
          </mxGeometry>
        </mxCell>
        <mxCell id="YgYwu3XMY0mxEqjxL5U3-92" value="Log event" style="text;html=1;align=center;verticalAlign=middle;resizable=0;points=[];labelBackgroundColor=#ffffff;" parent="YgYwu3XMY0mxEqjxL5U3-91" vertex="1" connectable="0">
          <mxGeometry x="0.1943" y="1" relative="1" as="geometry">
            <mxPoint x="-12.86" as="offset" />
          </mxGeometry>
        </mxCell>
        <mxCell id="YgYwu3XMY0mxEqjxL5U3-93" value="" style="endArrow=none;html=1;strokeColor=#000000;endFill=0;startArrow=classic;startFill=1;" parent="1" edge="1">
          <mxGeometry width="50" height="50" relative="1" as="geometry">
            <mxPoint x="-615" y="342" as="sourcePoint" />
            <mxPoint x="-454" y="342" as="targetPoint" />
          </mxGeometry>
        </mxCell>
        <mxCell id="YgYwu3XMY0mxEqjxL5U3-94" value="Push event" style="text;html=1;align=center;verticalAlign=middle;resizable=0;points=[];labelBackgroundColor=#ffffff;" parent="YgYwu3XMY0mxEqjxL5U3-93" vertex="1" connectable="0">
          <mxGeometry x="0.1943" y="1" relative="1" as="geometry">
            <mxPoint x="4" as="offset" />
          </mxGeometry>
        </mxCell>
        <mxCell id="YgYwu3XMY0mxEqjxL5U3-95" value="" style="endArrow=none;html=1;strokeColor=#000000;endFill=0;startArrow=classic;startFill=1;" parent="1" edge="1">
          <mxGeometry width="50" height="50" relative="1" as="geometry">
            <mxPoint x="-717" y="380" as="sourcePoint" />
            <mxPoint x="-627" y="380" as="targetPoint" />
            <Array as="points">
              <mxPoint x="-667" y="380" />
              <mxPoint x="-647" y="380" />
            </Array>
          </mxGeometry>
        </mxCell>
        <mxCell id="YgYwu3XMY0mxEqjxL5U3-96" value="Push event" style="text;html=1;align=center;verticalAlign=middle;resizable=0;points=[];labelBackgroundColor=#ffffff;" parent="YgYwu3XMY0mxEqjxL5U3-95" vertex="1" connectable="0">
          <mxGeometry x="0.1943" y="1" relative="1" as="geometry">
            <mxPoint x="-12.86" as="offset" />
          </mxGeometry>
        </mxCell>
        <mxCell id="YgYwu3XMY0mxEqjxL5U3-97" value="" style="endArrow=none;html=1;strokeColor=#000000;endFill=0;startArrow=classic;startFill=1;" parent="1" edge="1">
          <mxGeometry width="50" height="50" relative="1" as="geometry">
            <mxPoint x="-817" y="430" as="sourcePoint" />
            <mxPoint x="-727" y="430" as="targetPoint" />
          </mxGeometry>
        </mxCell>
        <mxCell id="YgYwu3XMY0mxEqjxL5U3-98" value="Index event" style="text;html=1;align=center;verticalAlign=middle;resizable=0;points=[];labelBackgroundColor=#ffffff;" parent="YgYwu3XMY0mxEqjxL5U3-97" vertex="1" connectable="0">
          <mxGeometry x="0.1943" y="1" relative="1" as="geometry">
            <mxPoint x="-2.8599999999999994" y="-6" as="offset" />
          </mxGeometry>
        </mxCell>
        <mxCell id="YgYwu3XMY0mxEqjxL5U3-99" value="" style="endArrow=none;html=1;strokeColor=#000000;endFill=0;startFill=1;startArrow=classic;" parent="1" edge="1">
          <mxGeometry width="50" height="50" relative="1" as="geometry">
            <mxPoint x="-1254" y="577" as="sourcePoint" />
            <mxPoint x="-934" y="577" as="targetPoint" />
          </mxGeometry>
        </mxCell>
        <mxCell id="YgYwu3XMY0mxEqjxL5U3-100" value="alert" style="text;html=1;align=center;verticalAlign=middle;resizable=0;points=[];labelBackgroundColor=#ffffff;" parent="YgYwu3XMY0mxEqjxL5U3-99" vertex="1" connectable="0">
          <mxGeometry x="0.1943" y="1" relative="1" as="geometry">
            <mxPoint x="49" y="1" as="offset" />
          </mxGeometry>
        </mxCell>
        <mxCell id="YgYwu3XMY0mxEqjxL5U3-101" value="" style="edgeStyle=orthogonalEdgeStyle;rounded=0;orthogonalLoop=1;jettySize=auto;html=1;endArrow=none;endFill=0;" parent="1" source="YgYwu3XMY0mxEqjxL5U3-102" target="YgYwu3XMY0mxEqjxL5U3-103" edge="1">
          <mxGeometry relative="1" as="geometry" />
        </mxCell>
        <mxCell id="YgYwu3XMY0mxEqjxL5U3-102" value="Alert&lt;br&gt;Manager" style="whiteSpace=wrap;html=1;aspect=fixed;" parent="1" vertex="1">
          <mxGeometry x="-1284" y="121" width="50" height="50" as="geometry" />
        </mxCell>
        <mxCell id="YgYwu3XMY0mxEqjxL5U3-103" value="Alert&lt;br&gt;Manager" style="whiteSpace=wrap;html=1;aspect=fixed;" parent="1" vertex="1">
          <mxGeometry x="-1284" y="707" width="50" height="50" as="geometry" />
        </mxCell>
        <mxCell id="YgYwu3XMY0mxEqjxL5U3-104" value="" style="edgeStyle=orthogonalEdgeStyle;rounded=0;orthogonalLoop=1;jettySize=auto;html=1;endArrow=none;endFill=0;" parent="1" source="YgYwu3XMY0mxEqjxL5U3-105" target="YgYwu3XMY0mxEqjxL5U3-106" edge="1">
          <mxGeometry relative="1" as="geometry" />
        </mxCell>
        <mxCell id="YgYwu3XMY0mxEqjxL5U3-105" value="Elast Alert" style="whiteSpace=wrap;html=1;aspect=fixed;" parent="1" vertex="1">
          <mxGeometry x="-954" y="121" width="50" height="50" as="geometry" />
        </mxCell>
        <mxCell id="YgYwu3XMY0mxEqjxL5U3-106" value="Elast Alert" style="whiteSpace=wrap;html=1;aspect=fixed;" parent="1" vertex="1">
          <mxGeometry x="-954" y="707" width="50" height="50" as="geometry" />
        </mxCell>
        <mxCell id="YgYwu3XMY0mxEqjxL5U3-107" value="" style="endArrow=classic;html=1;strokeColor=#000000;" parent="1" edge="1">
          <mxGeometry width="50" height="50" relative="1" as="geometry">
            <mxPoint x="-1254" y="432" as="sourcePoint" />
            <mxPoint x="-934" y="432" as="targetPoint" />
          </mxGeometry>
        </mxCell>
        <mxCell id="YgYwu3XMY0mxEqjxL5U3-108" value="Configure alert rule" style="text;html=1;align=center;verticalAlign=middle;resizable=0;points=[];labelBackgroundColor=#ffffff;" parent="YgYwu3XMY0mxEqjxL5U3-107" vertex="1" connectable="0">
          <mxGeometry x="0.2341" y="1" relative="1" as="geometry">
            <mxPoint x="-126" as="offset" />
          </mxGeometry>
        </mxCell>
        <mxCell id="YgYwu3XMY0mxEqjxL5U3-109" value="" style="endArrow=none;html=1;strokeColor=#000000;endFill=0;startArrow=classic;startFill=1;" parent="1" edge="1">
          <mxGeometry width="50" height="50" relative="1" as="geometry">
            <mxPoint x="-824" y="564" as="sourcePoint" />
            <mxPoint x="-924" y="564" as="targetPoint" />
            <Array as="points" />
          </mxGeometry>
        </mxCell>
        <mxCell id="YgYwu3XMY0mxEqjxL5U3-110" value="check&amp;nbsp; index" style="edgeLabel;html=1;align=center;verticalAlign=middle;resizable=0;points=[];" parent="YgYwu3XMY0mxEqjxL5U3-109" vertex="1" connectable="0">
          <mxGeometry x="0.24" relative="1" as="geometry">
            <mxPoint as="offset" />
          </mxGeometry>
        </mxCell>
        <mxCell id="YgYwu3XMY0mxEqjxL5U3-135" value="" style="edgeStyle=orthogonalEdgeStyle;rounded=0;orthogonalLoop=1;jettySize=auto;html=1;endArrow=none;endFill=0;" parent="1" source="YgYwu3XMY0mxEqjxL5U3-136" target="YgYwu3XMY0mxEqjxL5U3-137" edge="1">
          <mxGeometry relative="1" as="geometry" />
        </mxCell>
        <mxCell id="YgYwu3XMY0mxEqjxL5U3-136" value="Kafka" style="whiteSpace=wrap;html=1;aspect=fixed;" parent="1" vertex="1">
          <mxGeometry x="570" y="90" width="50" height="50" as="geometry" />
        </mxCell>
        <mxCell id="YgYwu3XMY0mxEqjxL5U3-137" value="Kafka" style="whiteSpace=wrap;html=1;aspect=fixed;" parent="1" vertex="1">
          <mxGeometry x="570" y="676" width="50" height="50" as="geometry" />
        </mxCell>
        <mxCell id="YgYwu3XMY0mxEqjxL5U3-138" value="" style="edgeStyle=orthogonalEdgeStyle;rounded=0;orthogonalLoop=1;jettySize=auto;html=1;endArrow=none;endFill=0;" parent="1" source="YgYwu3XMY0mxEqjxL5U3-139" target="YgYwu3XMY0mxEqjxL5U3-140" edge="1">
          <mxGeometry relative="1" as="geometry" />
        </mxCell>
        <mxCell id="YgYwu3XMY0mxEqjxL5U3-139" value="filebeat" style="whiteSpace=wrap;html=1;aspect=fixed;" parent="1" vertex="1">
          <mxGeometry x="746" y="90" width="50" height="50" as="geometry" />
        </mxCell>
        <mxCell id="YgYwu3XMY0mxEqjxL5U3-140" value="filebeat" style="whiteSpace=wrap;html=1;aspect=fixed;" parent="1" vertex="1">
          <mxGeometry x="746" y="676" width="50" height="50" as="geometry" />
        </mxCell>
        <mxCell id="YgYwu3XMY0mxEqjxL5U3-141" value="" style="edgeStyle=orthogonalEdgeStyle;rounded=0;orthogonalLoop=1;jettySize=auto;html=1;endArrow=none;endFill=0;" parent="1" edge="1">
          <mxGeometry relative="1" as="geometry">
            <mxPoint x="496" y="140" as="sourcePoint" />
            <mxPoint x="496" y="700" as="targetPoint" />
          </mxGeometry>
        </mxCell>
        <mxCell id="YgYwu3XMY0mxEqjxL5U3-142" value="Logstash" style="whiteSpace=wrap;html=1;aspect=fixed;" parent="1" vertex="1">
          <mxGeometry x="470" y="90" width="50" height="50" as="geometry" />
        </mxCell>
        <mxCell id="YgYwu3XMY0mxEqjxL5U3-143" value="Logstash" style="whiteSpace=wrap;html=1;aspect=fixed;" parent="1" vertex="1">
          <mxGeometry x="470" y="676" width="50" height="50" as="geometry" />
        </mxCell>
        <mxCell id="YgYwu3XMY0mxEqjxL5U3-144" value="" style="edgeStyle=orthogonalEdgeStyle;rounded=0;orthogonalLoop=1;jettySize=auto;html=1;endArrow=none;endFill=0;" parent="1" source="YgYwu3XMY0mxEqjxL5U3-145" target="YgYwu3XMY0mxEqjxL5U3-146" edge="1">
          <mxGeometry relative="1" as="geometry" />
        </mxCell>
        <mxCell id="YgYwu3XMY0mxEqjxL5U3-145" value="Elastic" style="whiteSpace=wrap;html=1;aspect=fixed;" parent="1" vertex="1">
          <mxGeometry x="370" y="90" width="50" height="50" as="geometry" />
        </mxCell>
        <mxCell id="YgYwu3XMY0mxEqjxL5U3-146" value="Elastic" style="whiteSpace=wrap;html=1;aspect=fixed;" parent="1" vertex="1">
          <mxGeometry x="370" y="676" width="50" height="50" as="geometry" />
        </mxCell>
        <mxCell id="YgYwu3XMY0mxEqjxL5U3-147" value="" style="edgeStyle=orthogonalEdgeStyle;rounded=0;orthogonalLoop=1;jettySize=auto;html=1;endArrow=none;endFill=0;" parent="1" source="YgYwu3XMY0mxEqjxL5U3-148" target="YgYwu3XMY0mxEqjxL5U3-149" edge="1">
          <mxGeometry relative="1" as="geometry" />
        </mxCell>
        <mxCell id="YgYwu3XMY0mxEqjxL5U3-148" value="Conf&lt;br&gt;Manager" style="whiteSpace=wrap;html=1;aspect=fixed;" parent="1" vertex="1">
          <mxGeometry x="88" y="90" width="50" height="50" as="geometry" />
        </mxCell>
        <mxCell id="YgYwu3XMY0mxEqjxL5U3-149" value="Conf&lt;br&gt;Manager" style="whiteSpace=wrap;html=1;aspect=fixed;" parent="1" vertex="1">
          <mxGeometry x="88" y="676" width="50" height="50" as="geometry" />
        </mxCell>
        <mxCell id="YgYwu3XMY0mxEqjxL5U3-150" value="" style="endArrow=classic;html=1;strokeColor=#000000;" parent="1" edge="1">
          <mxGeometry width="50" height="50" relative="1" as="geometry">
            <mxPoint x="118" y="231" as="sourcePoint" />
            <mxPoint x="493" y="231" as="targetPoint" />
          </mxGeometry>
        </mxCell>
        <mxCell id="YgYwu3XMY0mxEqjxL5U3-151" value="Configure pipeline" style="text;html=1;align=center;verticalAlign=middle;resizable=0;points=[];labelBackgroundColor=#ffffff;" parent="YgYwu3XMY0mxEqjxL5U3-150" vertex="1" connectable="0">
          <mxGeometry x="0.2341" y="1" relative="1" as="geometry">
            <mxPoint x="-146" as="offset" />
          </mxGeometry>
        </mxCell>
        <mxCell id="YgYwu3XMY0mxEqjxL5U3-152" value="" style="endArrow=classic;html=1;fontColor=#B0B0B0;" parent="1" edge="1">
          <mxGeometry width="50" height="50" relative="1" as="geometry">
            <mxPoint x="118" y="188" as="sourcePoint" />
            <mxPoint x="763" y="188" as="targetPoint" />
          </mxGeometry>
        </mxCell>
        <mxCell id="YgYwu3XMY0mxEqjxL5U3-153" value="&lt;font color=&quot;#000000&quot;&gt;Create topic list errorlevel&lt;/font&gt;" style="text;html=1;align=center;verticalAlign=middle;resizable=0;points=[];labelBackgroundColor=#ffffff;fontColor=#B0B0B0;" parent="YgYwu3XMY0mxEqjxL5U3-152" vertex="1" connectable="0">
          <mxGeometry x="0.1943" y="1" relative="1" as="geometry">
            <mxPoint x="-300" as="offset" />
          </mxGeometry>
        </mxCell>
        <mxCell id="YgYwu3XMY0mxEqjxL5U3-154" value="" style="edgeStyle=orthogonalEdgeStyle;rounded=0;orthogonalLoop=1;jettySize=auto;html=1;endArrow=none;endFill=0;" parent="1" source="YgYwu3XMY0mxEqjxL5U3-155" target="YgYwu3XMY0mxEqjxL5U3-156" edge="1">
          <mxGeometry relative="1" as="geometry" />
        </mxCell>
        <mxCell id="YgYwu3XMY0mxEqjxL5U3-155" value="Resource" style="whiteSpace=wrap;html=1;aspect=fixed;" parent="1" vertex="1">
          <mxGeometry x="928" y="90" width="50" height="50" as="geometry" />
        </mxCell>
        <mxCell id="YgYwu3XMY0mxEqjxL5U3-156" value="Resource" style="whiteSpace=wrap;html=1;aspect=fixed;" parent="1" vertex="1">
          <mxGeometry x="928" y="676" width="50" height="50" as="geometry" />
        </mxCell>
        <mxCell id="YgYwu3XMY0mxEqjxL5U3-157" value="" style="endArrow=none;html=1;strokeColor=#000000;endFill=0;startFill=1;startArrow=classic;" parent="1" edge="1">
          <mxGeometry width="50" height="50" relative="1" as="geometry">
            <mxPoint x="776" y="269" as="sourcePoint" />
            <mxPoint x="946" y="269" as="targetPoint" />
            <Array as="points">
              <mxPoint x="836" y="269" />
            </Array>
          </mxGeometry>
        </mxCell>
        <mxCell id="YgYwu3XMY0mxEqjxL5U3-158" value="Log event" style="text;html=1;align=center;verticalAlign=middle;resizable=0;points=[];labelBackgroundColor=#ffffff;" parent="YgYwu3XMY0mxEqjxL5U3-157" vertex="1" connectable="0">
          <mxGeometry x="0.1943" y="1" relative="1" as="geometry">
            <mxPoint x="-12.86" as="offset" />
          </mxGeometry>
        </mxCell>
        <mxCell id="YgYwu3XMY0mxEqjxL5U3-159" value="" style="endArrow=none;html=1;strokeColor=#000000;endFill=0;startArrow=classic;startFill=1;" parent="1" edge="1">
          <mxGeometry width="50" height="50" relative="1" as="geometry">
            <mxPoint x="602" y="311" as="sourcePoint" />
            <mxPoint x="763" y="311" as="targetPoint" />
          </mxGeometry>
        </mxCell>
        <mxCell id="YgYwu3XMY0mxEqjxL5U3-160" value="Push event" style="text;html=1;align=center;verticalAlign=middle;resizable=0;points=[];labelBackgroundColor=#ffffff;" parent="YgYwu3XMY0mxEqjxL5U3-159" vertex="1" connectable="0">
          <mxGeometry x="0.1943" y="1" relative="1" as="geometry">
            <mxPoint x="4" as="offset" />
          </mxGeometry>
        </mxCell>
        <mxCell id="YgYwu3XMY0mxEqjxL5U3-161" value="" style="endArrow=none;html=1;strokeColor=#000000;endFill=0;startArrow=classic;startFill=1;" parent="1" edge="1">
          <mxGeometry width="50" height="50" relative="1" as="geometry">
            <mxPoint x="500" y="349" as="sourcePoint" />
            <mxPoint x="590" y="349" as="targetPoint" />
            <Array as="points">
              <mxPoint x="550" y="349" />
              <mxPoint x="570" y="349" />
            </Array>
          </mxGeometry>
        </mxCell>
        <mxCell id="YgYwu3XMY0mxEqjxL5U3-162" value="Push event" style="text;html=1;align=center;verticalAlign=middle;resizable=0;points=[];labelBackgroundColor=#ffffff;" parent="YgYwu3XMY0mxEqjxL5U3-161" vertex="1" connectable="0">
          <mxGeometry x="0.1943" y="1" relative="1" as="geometry">
            <mxPoint x="-12.86" as="offset" />
          </mxGeometry>
        </mxCell>
        <mxCell id="YgYwu3XMY0mxEqjxL5U3-163" value="" style="endArrow=none;html=1;strokeColor=#000000;endFill=0;startArrow=classic;startFill=1;" parent="1" edge="1">
          <mxGeometry width="50" height="50" relative="1" as="geometry">
            <mxPoint x="400" y="399" as="sourcePoint" />
            <mxPoint x="490" y="399" as="targetPoint" />
          </mxGeometry>
        </mxCell>
        <mxCell id="YgYwu3XMY0mxEqjxL5U3-164" value="Index event" style="text;html=1;align=center;verticalAlign=middle;resizable=0;points=[];labelBackgroundColor=#ffffff;" parent="YgYwu3XMY0mxEqjxL5U3-163" vertex="1" connectable="0">
          <mxGeometry x="0.1943" y="1" relative="1" as="geometry">
            <mxPoint x="-2.8599999999999994" y="-6" as="offset" />
          </mxGeometry>
        </mxCell>
        <mxCell id="YgYwu3XMY0mxEqjxL5U3-165" value="" style="endArrow=none;html=1;strokeColor=#000000;endFill=0;startFill=1;startArrow=classic;" parent="1" edge="1">
          <mxGeometry width="50" height="50" relative="1" as="geometry">
            <mxPoint x="-37" y="546" as="sourcePoint" />
            <mxPoint x="283" y="546" as="targetPoint" />
          </mxGeometry>
        </mxCell>
        <mxCell id="YgYwu3XMY0mxEqjxL5U3-166" value="alert" style="text;html=1;align=center;verticalAlign=middle;resizable=0;points=[];labelBackgroundColor=#ffffff;" parent="YgYwu3XMY0mxEqjxL5U3-165" vertex="1" connectable="0">
          <mxGeometry x="0.1943" y="1" relative="1" as="geometry">
            <mxPoint x="49" y="1" as="offset" />
          </mxGeometry>
        </mxCell>
        <mxCell id="YgYwu3XMY0mxEqjxL5U3-167" value="" style="edgeStyle=orthogonalEdgeStyle;rounded=0;orthogonalLoop=1;jettySize=auto;html=1;endArrow=none;endFill=0;" parent="1" source="YgYwu3XMY0mxEqjxL5U3-168" target="YgYwu3XMY0mxEqjxL5U3-169" edge="1">
          <mxGeometry relative="1" as="geometry" />
        </mxCell>
        <mxCell id="YgYwu3XMY0mxEqjxL5U3-168" value="Alert&lt;br&gt;Manager" style="whiteSpace=wrap;html=1;aspect=fixed;" parent="1" vertex="1">
          <mxGeometry x="-67" y="90" width="50" height="50" as="geometry" />
        </mxCell>
        <mxCell id="YgYwu3XMY0mxEqjxL5U3-169" value="Alert&lt;br&gt;Manager" style="whiteSpace=wrap;html=1;aspect=fixed;" parent="1" vertex="1">
          <mxGeometry x="-67" y="676" width="50" height="50" as="geometry" />
        </mxCell>
        <mxCell id="YgYwu3XMY0mxEqjxL5U3-170" value="" style="edgeStyle=orthogonalEdgeStyle;rounded=0;orthogonalLoop=1;jettySize=auto;html=1;endArrow=none;endFill=0;" parent="1" source="YgYwu3XMY0mxEqjxL5U3-171" target="YgYwu3XMY0mxEqjxL5U3-172" edge="1">
          <mxGeometry relative="1" as="geometry" />
        </mxCell>
        <mxCell id="YgYwu3XMY0mxEqjxL5U3-171" value="Elast Alert" style="whiteSpace=wrap;html=1;aspect=fixed;" parent="1" vertex="1">
          <mxGeometry x="263" y="90" width="50" height="50" as="geometry" />
        </mxCell>
        <mxCell id="YgYwu3XMY0mxEqjxL5U3-172" value="Elast Alert" style="whiteSpace=wrap;html=1;aspect=fixed;" parent="1" vertex="1">
          <mxGeometry x="263" y="676" width="50" height="50" as="geometry" />
        </mxCell>
        <mxCell id="YgYwu3XMY0mxEqjxL5U3-173" value="" style="endArrow=classic;html=1;strokeColor=#000000;" parent="1" edge="1">
          <mxGeometry width="50" height="50" relative="1" as="geometry">
            <mxPoint x="-37" y="401" as="sourcePoint" />
            <mxPoint x="283" y="401" as="targetPoint" />
          </mxGeometry>
        </mxCell>
        <mxCell id="YgYwu3XMY0mxEqjxL5U3-174" value="Configure alert rule" style="text;html=1;align=center;verticalAlign=middle;resizable=0;points=[];labelBackgroundColor=#ffffff;" parent="YgYwu3XMY0mxEqjxL5U3-173" vertex="1" connectable="0">
          <mxGeometry x="0.2341" y="1" relative="1" as="geometry">
            <mxPoint x="-126" as="offset" />
          </mxGeometry>
        </mxCell>
        <mxCell id="YgYwu3XMY0mxEqjxL5U3-175" value="" style="endArrow=none;html=1;strokeColor=#000000;endFill=0;startArrow=classic;startFill=1;" parent="1" edge="1">
          <mxGeometry width="50" height="50" relative="1" as="geometry">
            <mxPoint x="393" y="533" as="sourcePoint" />
            <mxPoint x="293" y="533" as="targetPoint" />
            <Array as="points" />
          </mxGeometry>
        </mxCell>
        <mxCell id="YgYwu3XMY0mxEqjxL5U3-176" value="check&amp;nbsp; index" style="edgeLabel;html=1;align=center;verticalAlign=middle;resizable=0;points=[];" parent="YgYwu3XMY0mxEqjxL5U3-175" vertex="1" connectable="0">
          <mxGeometry x="0.24" relative="1" as="geometry">
            <mxPoint as="offset" />
          </mxGeometry>
        </mxCell>
        <mxCell id="YgYwu3XMY0mxEqjxL5U3-201" value="" style="edgeStyle=orthogonalEdgeStyle;rounded=0;orthogonalLoop=1;jettySize=auto;html=1;endArrow=none;endFill=0;" parent="1" source="YgYwu3XMY0mxEqjxL5U3-202" target="YgYwu3XMY0mxEqjxL5U3-203" edge="1">
          <mxGeometry relative="1" as="geometry" />
        </mxCell>
        <mxCell id="YgYwu3XMY0mxEqjxL5U3-202" value="Kafka" style="whiteSpace=wrap;html=1;aspect=fixed;" parent="1" vertex="1">
          <mxGeometry x="541" y="1752" width="50" height="50" as="geometry" />
        </mxCell>
        <mxCell id="YgYwu3XMY0mxEqjxL5U3-203" value="Kafka" style="whiteSpace=wrap;html=1;aspect=fixed;" parent="1" vertex="1">
          <mxGeometry x="541" y="2338" width="50" height="50" as="geometry" />
        </mxCell>
        <mxCell id="YgYwu3XMY0mxEqjxL5U3-204" value="" style="edgeStyle=orthogonalEdgeStyle;rounded=0;orthogonalLoop=1;jettySize=auto;html=1;endArrow=none;endFill=0;" parent="1" source="YgYwu3XMY0mxEqjxL5U3-205" target="YgYwu3XMY0mxEqjxL5U3-206" edge="1">
          <mxGeometry relative="1" as="geometry" />
        </mxCell>
        <mxCell id="YgYwu3XMY0mxEqjxL5U3-205" value="filebeat" style="whiteSpace=wrap;html=1;aspect=fixed;" parent="1" vertex="1">
          <mxGeometry x="717" y="1752" width="50" height="50" as="geometry" />
        </mxCell>
        <mxCell id="YgYwu3XMY0mxEqjxL5U3-206" value="filebeat" style="whiteSpace=wrap;html=1;aspect=fixed;" parent="1" vertex="1">
          <mxGeometry x="717" y="2338" width="50" height="50" as="geometry" />
        </mxCell>
        <mxCell id="YgYwu3XMY0mxEqjxL5U3-207" value="" style="edgeStyle=orthogonalEdgeStyle;rounded=0;orthogonalLoop=1;jettySize=auto;html=1;endArrow=none;endFill=0;" parent="1" edge="1">
          <mxGeometry relative="1" as="geometry">
            <mxPoint x="467" y="1802" as="sourcePoint" />
            <mxPoint x="467" y="2362" as="targetPoint" />
          </mxGeometry>
        </mxCell>
        <mxCell id="YgYwu3XMY0mxEqjxL5U3-208" value="Logstash" style="whiteSpace=wrap;html=1;aspect=fixed;" parent="1" vertex="1">
          <mxGeometry x="441" y="1752" width="50" height="50" as="geometry" />
        </mxCell>
        <mxCell id="YgYwu3XMY0mxEqjxL5U3-209" value="Logstash" style="whiteSpace=wrap;html=1;aspect=fixed;" parent="1" vertex="1">
          <mxGeometry x="441" y="2338" width="50" height="50" as="geometry" />
        </mxCell>
        <mxCell id="YgYwu3XMY0mxEqjxL5U3-210" value="" style="edgeStyle=orthogonalEdgeStyle;rounded=0;orthogonalLoop=1;jettySize=auto;html=1;endArrow=none;endFill=0;" parent="1" source="YgYwu3XMY0mxEqjxL5U3-211" target="YgYwu3XMY0mxEqjxL5U3-212" edge="1">
          <mxGeometry relative="1" as="geometry" />
        </mxCell>
        <mxCell id="YgYwu3XMY0mxEqjxL5U3-211" value="Elastic" style="whiteSpace=wrap;html=1;aspect=fixed;" parent="1" vertex="1">
          <mxGeometry x="341" y="1752" width="50" height="50" as="geometry" />
        </mxCell>
        <mxCell id="YgYwu3XMY0mxEqjxL5U3-212" value="Elastic" style="whiteSpace=wrap;html=1;aspect=fixed;" parent="1" vertex="1">
          <mxGeometry x="341" y="2338" width="50" height="50" as="geometry" />
        </mxCell>
        <mxCell id="YgYwu3XMY0mxEqjxL5U3-213" value="" style="edgeStyle=orthogonalEdgeStyle;rounded=0;orthogonalLoop=1;jettySize=auto;html=1;endArrow=none;endFill=0;" parent="1" source="YgYwu3XMY0mxEqjxL5U3-214" target="YgYwu3XMY0mxEqjxL5U3-215" edge="1">
          <mxGeometry relative="1" as="geometry" />
        </mxCell>
        <mxCell id="YgYwu3XMY0mxEqjxL5U3-214" value="Conf&lt;br&gt;Manager" style="whiteSpace=wrap;html=1;aspect=fixed;" parent="1" vertex="1">
          <mxGeometry x="59" y="1752" width="50" height="50" as="geometry" />
        </mxCell>
        <mxCell id="YgYwu3XMY0mxEqjxL5U3-215" value="Conf&lt;br&gt;Manager" style="whiteSpace=wrap;html=1;aspect=fixed;" parent="1" vertex="1">
          <mxGeometry x="59" y="2338" width="50" height="50" as="geometry" />
        </mxCell>
        <mxCell id="YgYwu3XMY0mxEqjxL5U3-216" value="" style="endArrow=classic;html=1;strokeColor=#000000;" parent="1" edge="1">
          <mxGeometry width="50" height="50" relative="1" as="geometry">
            <mxPoint x="89" y="1893" as="sourcePoint" />
            <mxPoint x="464" y="1893" as="targetPoint" />
          </mxGeometry>
        </mxCell>
        <mxCell id="YgYwu3XMY0mxEqjxL5U3-217" value="Configure pipeline" style="text;html=1;align=center;verticalAlign=middle;resizable=0;points=[];labelBackgroundColor=#ffffff;" parent="YgYwu3XMY0mxEqjxL5U3-216" vertex="1" connectable="0">
          <mxGeometry x="0.2341" y="1" relative="1" as="geometry">
            <mxPoint x="-146" as="offset" />
          </mxGeometry>
        </mxCell>
        <mxCell id="YgYwu3XMY0mxEqjxL5U3-218" value="" style="endArrow=classic;html=1;fontColor=#B0B0B0;" parent="1" edge="1">
          <mxGeometry width="50" height="50" relative="1" as="geometry">
            <mxPoint x="89" y="1850" as="sourcePoint" />
            <mxPoint x="734" y="1850" as="targetPoint" />
          </mxGeometry>
        </mxCell>
        <mxCell id="YgYwu3XMY0mxEqjxL5U3-219" value="&lt;font color=&quot;#000000&quot;&gt;Create topic list errorlevel&lt;/font&gt;" style="text;html=1;align=center;verticalAlign=middle;resizable=0;points=[];labelBackgroundColor=#ffffff;fontColor=#B0B0B0;" parent="YgYwu3XMY0mxEqjxL5U3-218" vertex="1" connectable="0">
          <mxGeometry x="0.1943" y="1" relative="1" as="geometry">
            <mxPoint x="-300" as="offset" />
          </mxGeometry>
        </mxCell>
        <mxCell id="YgYwu3XMY0mxEqjxL5U3-220" value="" style="edgeStyle=orthogonalEdgeStyle;rounded=0;orthogonalLoop=1;jettySize=auto;html=1;endArrow=none;endFill=0;" parent="1" source="YgYwu3XMY0mxEqjxL5U3-221" target="YgYwu3XMY0mxEqjxL5U3-222" edge="1">
          <mxGeometry relative="1" as="geometry" />
        </mxCell>
        <mxCell id="YgYwu3XMY0mxEqjxL5U3-221" value="Resource" style="whiteSpace=wrap;html=1;aspect=fixed;" parent="1" vertex="1">
          <mxGeometry x="899" y="1752" width="50" height="50" as="geometry" />
        </mxCell>
        <mxCell id="YgYwu3XMY0mxEqjxL5U3-222" value="Resource" style="whiteSpace=wrap;html=1;aspect=fixed;" parent="1" vertex="1">
          <mxGeometry x="899" y="2338" width="50" height="50" as="geometry" />
        </mxCell>
        <mxCell id="YgYwu3XMY0mxEqjxL5U3-223" value="" style="endArrow=none;html=1;strokeColor=#000000;endFill=0;startFill=1;startArrow=classic;" parent="1" edge="1">
          <mxGeometry width="50" height="50" relative="1" as="geometry">
            <mxPoint x="747" y="1931" as="sourcePoint" />
            <mxPoint x="917" y="1931" as="targetPoint" />
            <Array as="points">
              <mxPoint x="807" y="1931" />
            </Array>
          </mxGeometry>
        </mxCell>
        <mxCell id="YgYwu3XMY0mxEqjxL5U3-224" value="Log event" style="text;html=1;align=center;verticalAlign=middle;resizable=0;points=[];labelBackgroundColor=#ffffff;" parent="YgYwu3XMY0mxEqjxL5U3-223" vertex="1" connectable="0">
          <mxGeometry x="0.1943" y="1" relative="1" as="geometry">
            <mxPoint x="-12.86" as="offset" />
          </mxGeometry>
        </mxCell>
        <mxCell id="YgYwu3XMY0mxEqjxL5U3-225" value="" style="endArrow=none;html=1;strokeColor=#000000;endFill=0;startArrow=classic;startFill=1;" parent="1" edge="1">
          <mxGeometry width="50" height="50" relative="1" as="geometry">
            <mxPoint x="573" y="1973" as="sourcePoint" />
            <mxPoint x="734" y="1973" as="targetPoint" />
          </mxGeometry>
        </mxCell>
        <mxCell id="YgYwu3XMY0mxEqjxL5U3-226" value="Push event" style="text;html=1;align=center;verticalAlign=middle;resizable=0;points=[];labelBackgroundColor=#ffffff;" parent="YgYwu3XMY0mxEqjxL5U3-225" vertex="1" connectable="0">
          <mxGeometry x="0.1943" y="1" relative="1" as="geometry">
            <mxPoint x="4" as="offset" />
          </mxGeometry>
        </mxCell>
        <mxCell id="YgYwu3XMY0mxEqjxL5U3-227" value="" style="endArrow=none;html=1;strokeColor=#000000;endFill=0;startArrow=classic;startFill=1;" parent="1" edge="1">
          <mxGeometry width="50" height="50" relative="1" as="geometry">
            <mxPoint x="471" y="2011" as="sourcePoint" />
            <mxPoint x="561" y="2011" as="targetPoint" />
            <Array as="points">
              <mxPoint x="521" y="2011" />
              <mxPoint x="541" y="2011" />
            </Array>
          </mxGeometry>
        </mxCell>
        <mxCell id="YgYwu3XMY0mxEqjxL5U3-228" value="Push event" style="text;html=1;align=center;verticalAlign=middle;resizable=0;points=[];labelBackgroundColor=#ffffff;" parent="YgYwu3XMY0mxEqjxL5U3-227" vertex="1" connectable="0">
          <mxGeometry x="0.1943" y="1" relative="1" as="geometry">
            <mxPoint x="-12.86" as="offset" />
          </mxGeometry>
        </mxCell>
        <mxCell id="YgYwu3XMY0mxEqjxL5U3-229" value="" style="endArrow=none;html=1;strokeColor=#000000;endFill=0;startArrow=classic;startFill=1;" parent="1" edge="1">
          <mxGeometry width="50" height="50" relative="1" as="geometry">
            <mxPoint x="371" y="2061" as="sourcePoint" />
            <mxPoint x="461" y="2061" as="targetPoint" />
          </mxGeometry>
        </mxCell>
        <mxCell id="YgYwu3XMY0mxEqjxL5U3-230" value="Index event" style="text;html=1;align=center;verticalAlign=middle;resizable=0;points=[];labelBackgroundColor=#ffffff;" parent="YgYwu3XMY0mxEqjxL5U3-229" vertex="1" connectable="0">
          <mxGeometry x="0.1943" y="1" relative="1" as="geometry">
            <mxPoint x="-2.8599999999999994" y="-6" as="offset" />
          </mxGeometry>
        </mxCell>
        <mxCell id="YgYwu3XMY0mxEqjxL5U3-231" value="" style="endArrow=none;html=1;strokeColor=#000000;endFill=0;startFill=1;startArrow=classic;" parent="1" edge="1">
          <mxGeometry width="50" height="50" relative="1" as="geometry">
            <mxPoint x="-66" y="2208" as="sourcePoint" />
            <mxPoint x="254" y="2208" as="targetPoint" />
          </mxGeometry>
        </mxCell>
        <mxCell id="YgYwu3XMY0mxEqjxL5U3-232" value="alert" style="text;html=1;align=center;verticalAlign=middle;resizable=0;points=[];labelBackgroundColor=#ffffff;" parent="YgYwu3XMY0mxEqjxL5U3-231" vertex="1" connectable="0">
          <mxGeometry x="0.1943" y="1" relative="1" as="geometry">
            <mxPoint x="49" y="1" as="offset" />
          </mxGeometry>
        </mxCell>
        <mxCell id="YgYwu3XMY0mxEqjxL5U3-233" value="" style="edgeStyle=orthogonalEdgeStyle;rounded=0;orthogonalLoop=1;jettySize=auto;html=1;endArrow=none;endFill=0;" parent="1" source="YgYwu3XMY0mxEqjxL5U3-234" target="YgYwu3XMY0mxEqjxL5U3-235" edge="1">
          <mxGeometry relative="1" as="geometry" />
        </mxCell>
        <mxCell id="YgYwu3XMY0mxEqjxL5U3-234" value="Alert&lt;br&gt;Manager" style="whiteSpace=wrap;html=1;aspect=fixed;" parent="1" vertex="1">
          <mxGeometry x="-96" y="1752" width="50" height="50" as="geometry" />
        </mxCell>
        <mxCell id="YgYwu3XMY0mxEqjxL5U3-235" value="Alert&lt;br&gt;Manager" style="whiteSpace=wrap;html=1;aspect=fixed;" parent="1" vertex="1">
          <mxGeometry x="-96" y="2338" width="50" height="50" as="geometry" />
        </mxCell>
        <mxCell id="YgYwu3XMY0mxEqjxL5U3-236" value="" style="edgeStyle=orthogonalEdgeStyle;rounded=0;orthogonalLoop=1;jettySize=auto;html=1;endArrow=none;endFill=0;" parent="1" source="YgYwu3XMY0mxEqjxL5U3-237" target="YgYwu3XMY0mxEqjxL5U3-238" edge="1">
          <mxGeometry relative="1" as="geometry" />
        </mxCell>
        <mxCell id="YgYwu3XMY0mxEqjxL5U3-237" value="Elast Alert" style="whiteSpace=wrap;html=1;aspect=fixed;" parent="1" vertex="1">
          <mxGeometry x="234" y="1752" width="50" height="50" as="geometry" />
        </mxCell>
        <mxCell id="YgYwu3XMY0mxEqjxL5U3-238" value="Elast Alert" style="whiteSpace=wrap;html=1;aspect=fixed;" parent="1" vertex="1">
          <mxGeometry x="234" y="2338" width="50" height="50" as="geometry" />
        </mxCell>
        <mxCell id="YgYwu3XMY0mxEqjxL5U3-239" value="" style="endArrow=classic;html=1;strokeColor=#000000;" parent="1" edge="1">
          <mxGeometry width="50" height="50" relative="1" as="geometry">
            <mxPoint x="-66" y="2063" as="sourcePoint" />
            <mxPoint x="254" y="2063" as="targetPoint" />
          </mxGeometry>
        </mxCell>
        <mxCell id="YgYwu3XMY0mxEqjxL5U3-240" value="Configure alert rule" style="text;html=1;align=center;verticalAlign=middle;resizable=0;points=[];labelBackgroundColor=#ffffff;" parent="YgYwu3XMY0mxEqjxL5U3-239" vertex="1" connectable="0">
          <mxGeometry x="0.2341" y="1" relative="1" as="geometry">
            <mxPoint x="-126" as="offset" />
          </mxGeometry>
        </mxCell>
        <mxCell id="YgYwu3XMY0mxEqjxL5U3-241" value="" style="endArrow=none;html=1;strokeColor=#000000;endFill=0;startArrow=classic;startFill=1;" parent="1" edge="1">
          <mxGeometry width="50" height="50" relative="1" as="geometry">
            <mxPoint x="364" y="2195" as="sourcePoint" />
            <mxPoint x="264" y="2195" as="targetPoint" />
            <Array as="points" />
          </mxGeometry>
        </mxCell>
        <mxCell id="YgYwu3XMY0mxEqjxL5U3-242" value="check&amp;nbsp; index" style="edgeLabel;html=1;align=center;verticalAlign=middle;resizable=0;points=[];" parent="YgYwu3XMY0mxEqjxL5U3-241" vertex="1" connectable="0">
          <mxGeometry x="0.24" relative="1" as="geometry">
            <mxPoint as="offset" />
          </mxGeometry>
        </mxCell>
        <mxCell id="YgYwu3XMY0mxEqjxL5U3-243" value="" style="edgeStyle=orthogonalEdgeStyle;rounded=0;orthogonalLoop=1;jettySize=auto;html=1;strokeColor=#000000;" parent="1" source="YgYwu3XMY0mxEqjxL5U3-245" target="YgYwu3XMY0mxEqjxL5U3-254" edge="1">
          <mxGeometry relative="1" as="geometry" />
        </mxCell>
        <mxCell id="YgYwu3XMY0mxEqjxL5U3-244" value="" style="edgeStyle=orthogonalEdgeStyle;rounded=0;orthogonalLoop=1;jettySize=auto;html=1;strokeColor=#000000;" parent="1" source="YgYwu3XMY0mxEqjxL5U3-245" target="YgYwu3XMY0mxEqjxL5U3-255" edge="1">
          <mxGeometry relative="1" as="geometry" />
        </mxCell>
        <mxCell id="YgYwu3XMY0mxEqjxL5U3-245" value="" style="ellipse;whiteSpace=wrap;html=1;" parent="1" vertex="1">
          <mxGeometry x="294" y="1322" width="78" height="60" as="geometry" />
        </mxCell>
        <mxCell id="YgYwu3XMY0mxEqjxL5U3-246" value="" style="edgeStyle=orthogonalEdgeStyle;rounded=0;orthogonalLoop=1;jettySize=auto;html=1;" parent="1" source="YgYwu3XMY0mxEqjxL5U3-247" target="YgYwu3XMY0mxEqjxL5U3-245" edge="1">
          <mxGeometry relative="1" as="geometry" />
        </mxCell>
        <mxCell id="YgYwu3XMY0mxEqjxL5U3-247" value="" style="html=1;shadow=0;dashed=0;align=center;verticalAlign=middle;shape=mxgraph.arrows2.jumpInArrow;dy=15;dx=38;arrowHead=55;" parent="1" vertex="1">
          <mxGeometry x="59" y="1372" width="100" height="100" as="geometry" />
        </mxCell>
        <mxCell id="YgYwu3XMY0mxEqjxL5U3-248" value="" style="edgeStyle=orthogonalEdgeStyle;rounded=0;orthogonalLoop=1;jettySize=auto;html=1;" parent="1" source="YgYwu3XMY0mxEqjxL5U3-249" target="YgYwu3XMY0mxEqjxL5U3-247" edge="1">
          <mxGeometry relative="1" as="geometry" />
        </mxCell>
        <mxCell id="YgYwu3XMY0mxEqjxL5U3-249" value="" style="shape=image;html=1;verticalLabelPosition=bottom;verticalAlign=top;imageAspect=0;image=img/clipart/Gear_128x128.png" parent="1" vertex="1">
          <mxGeometry x="1074" y="1592" width="50" height="60" as="geometry" />
        </mxCell>
        <mxCell id="YgYwu3XMY0mxEqjxL5U3-250" value="" style="edgeStyle=orthogonalEdgeStyle;rounded=0;orthogonalLoop=1;jettySize=auto;html=1;" parent="1" source="YgYwu3XMY0mxEqjxL5U3-251" target="YgYwu3XMY0mxEqjxL5U3-249" edge="1">
          <mxGeometry relative="1" as="geometry" />
        </mxCell>
        <mxCell id="YgYwu3XMY0mxEqjxL5U3-251" value="" style="rhombus;whiteSpace=wrap;html=1;strokeWidth=2;fillWeight=-1;hachureGap=8;fillStyle=cross-hatch;fillColor=#006600;sketch=1;" parent="1" vertex="1">
          <mxGeometry x="767" y="1512" width="120" height="60" as="geometry" />
        </mxCell>
        <mxCell id="YgYwu3XMY0mxEqjxL5U3-252" value="Button" style="labelPosition=center;verticalLabelPosition=middle;align=center;html=1;shape=mxgraph.basic.shaded_button;dx=10;fillColor=#E6E6E6;strokeColor=none;" parent="1" vertex="1">
          <mxGeometry x="159" y="922" width="100" height="60" as="geometry" />
        </mxCell>
        <mxCell id="YgYwu3XMY0mxEqjxL5U3-253" style="edgeStyle=orthogonalEdgeStyle;rounded=0;orthogonalLoop=1;jettySize=auto;html=1;strokeColor=#000000;entryX=0.5;entryY=0;entryDx=0;entryDy=0;" parent="1" source="YgYwu3XMY0mxEqjxL5U3-254" target="YgYwu3XMY0mxEqjxL5U3-251" edge="1">
          <mxGeometry relative="1" as="geometry">
            <mxPoint x="774" y="1432" as="targetPoint" />
          </mxGeometry>
        </mxCell>
        <mxCell id="YgYwu3XMY0mxEqjxL5U3-254" value="" style="shape=mxgraph.bpmn.shape;html=1;verticalLabelPosition=bottom;labelBackgroundColor=#ffffff;verticalAlign=top;align=center;perimeter=ellipsePerimeter;outlineConnect=0;outline=boundInt;symbol=error;" parent="1" vertex="1">
          <mxGeometry x="694" y="1402" width="50" height="50" as="geometry" />
        </mxCell>
        <mxCell id="YgYwu3XMY0mxEqjxL5U3-255" value="" style="shape=parallelogram;perimeter=parallelogramPerimeter;whiteSpace=wrap;html=1;fixedSize=1;" parent="1" vertex="1">
          <mxGeometry x="491" y="1152" width="120" height="110" as="geometry" />
        </mxCell>
        <mxCell id="YgYwu3XMY0mxEqjxL5U3-256" value="" style="edgeStyle=orthogonalEdgeStyle;rounded=0;orthogonalLoop=1;jettySize=auto;html=1;strokeColor=#000000;" parent="1" source="YgYwu3XMY0mxEqjxL5U3-257" target="YgYwu3XMY0mxEqjxL5U3-263" edge="1">
          <mxGeometry relative="1" as="geometry" />
        </mxCell>
        <mxCell id="YgYwu3XMY0mxEqjxL5U3-257" value="" style="whiteSpace=wrap;html=1;shape=mxgraph.basic.isocube;isoAngle=15;" parent="1" vertex="1">
          <mxGeometry x="94" y="1042" width="100" height="100" as="geometry" />
        </mxCell>
        <mxCell id="YgYwu3XMY0mxEqjxL5U3-258" style="edgeStyle=orthogonalEdgeStyle;rounded=0;orthogonalLoop=1;jettySize=auto;html=1;entryX=0;entryY=0;entryDx=73.5;entryDy=0;entryPerimeter=0;" parent="1" source="YgYwu3XMY0mxEqjxL5U3-259" target="YgYwu3XMY0mxEqjxL5U3-264" edge="1">
          <mxGeometry relative="1" as="geometry" />
        </mxCell>
        <mxCell id="YgYwu3XMY0mxEqjxL5U3-259" value="" style="whiteSpace=wrap;html=1;shape=mxgraph.basic.isocube;isoAngle=15;" parent="1" vertex="1">
          <mxGeometry x="-56" y="872" width="100" height="100" as="geometry" />
        </mxCell>
        <mxCell id="YgYwu3XMY0mxEqjxL5U3-260" style="edgeStyle=orthogonalEdgeStyle;rounded=0;orthogonalLoop=1;jettySize=auto;html=1;strokeColor=#000000;" parent="1" source="YgYwu3XMY0mxEqjxL5U3-261" edge="1">
          <mxGeometry relative="1" as="geometry">
            <mxPoint x="304" y="1552" as="targetPoint" />
          </mxGeometry>
        </mxCell>
        <mxCell id="YgYwu3XMY0mxEqjxL5U3-261" value="" style="shape=mxgraph.bpmn.script_task;html=1;outlineConnect=0;" parent="1" vertex="1">
          <mxGeometry x="244" y="1472" width="10" height="14" as="geometry" />
        </mxCell>
        <mxCell id="YgYwu3XMY0mxEqjxL5U3-262" value="" style="html=1;shadow=0;dashed=0;align=center;verticalAlign=middle;shape=mxgraph.arrows2.quadArrow;dy=10;dx=20;notch=24;arrowHead=10;" parent="1" vertex="1">
          <mxGeometry x="-96" y="1452" width="100" height="100" as="geometry" />
        </mxCell>
        <mxCell id="YgYwu3XMY0mxEqjxL5U3-263" value="" style="ellipse;shape=cloud;whiteSpace=wrap;html=1;" parent="1" vertex="1">
          <mxGeometry x="321" y="1052" width="120" height="80" as="geometry" />
        </mxCell>
        <mxCell id="YgYwu3XMY0mxEqjxL5U3-264" value="" style="verticalLabelPosition=bottom;verticalAlign=top;html=1;shape=mxgraph.basic.pyramid;dx1=0.49;dx2=0;dy1=0.08;dy2=1;rotation=-60;" parent="1" vertex="1">
          <mxGeometry x="784" y="872" width="150" height="200" as="geometry" />
        </mxCell>
        <mxCell id="YgYwu3XMY0mxEqjxL5U3-265" style="edgeStyle=orthogonalEdgeStyle;rounded=0;orthogonalLoop=1;jettySize=auto;html=1;entryX=0.5;entryY=1;entryDx=0;entryDy=0;entryPerimeter=0;" parent="1" source="YgYwu3XMY0mxEqjxL5U3-266" target="YgYwu3XMY0mxEqjxL5U3-259" edge="1">
          <mxGeometry relative="1" as="geometry" />
        </mxCell>
        <mxCell id="YgYwu3XMY0mxEqjxL5U3-266" value="" style="verticalLabelPosition=bottom;verticalAlign=top;html=1;shape=mxgraph.basic.cone2;dx=0.5;dy=0.68;" parent="1" vertex="1">
          <mxGeometry x="-56" y="1222" width="100" height="100" as="geometry" />
        </mxCell>
        <mxCell id="YgYwu3XMY0mxEqjxL5U3-267" value="" style="edgeStyle=orthogonalEdgeStyle;rounded=0;orthogonalLoop=1;jettySize=auto;html=1;endArrow=none;endFill=0;" parent="1" source="YgYwu3XMY0mxEqjxL5U3-268" target="YgYwu3XMY0mxEqjxL5U3-269" edge="1">
          <mxGeometry relative="1" as="geometry" />
        </mxCell>
        <mxCell id="YgYwu3XMY0mxEqjxL5U3-268" value="Kafka" style="whiteSpace=wrap;html=1;aspect=fixed;" parent="1" vertex="1">
          <mxGeometry x="-1685" y="3438" width="50" height="50" as="geometry" />
        </mxCell>
        <mxCell id="YgYwu3XMY0mxEqjxL5U3-269" value="Kafka" style="whiteSpace=wrap;html=1;aspect=fixed;" parent="1" vertex="1">
          <mxGeometry x="-1685" y="4024" width="50" height="50" as="geometry" />
        </mxCell>
        <mxCell id="YgYwu3XMY0mxEqjxL5U3-270" value="" style="edgeStyle=orthogonalEdgeStyle;rounded=0;orthogonalLoop=1;jettySize=auto;html=1;endArrow=none;endFill=0;" parent="1" source="YgYwu3XMY0mxEqjxL5U3-271" target="YgYwu3XMY0mxEqjxL5U3-272" edge="1">
          <mxGeometry relative="1" as="geometry" />
        </mxCell>
        <mxCell id="YgYwu3XMY0mxEqjxL5U3-271" value="filebeat" style="whiteSpace=wrap;html=1;aspect=fixed;" parent="1" vertex="1">
          <mxGeometry x="-1509" y="3438" width="50" height="50" as="geometry" />
        </mxCell>
        <mxCell id="YgYwu3XMY0mxEqjxL5U3-272" value="filebeat" style="whiteSpace=wrap;html=1;aspect=fixed;" parent="1" vertex="1">
          <mxGeometry x="-1509" y="4024" width="50" height="50" as="geometry" />
        </mxCell>
        <mxCell id="YgYwu3XMY0mxEqjxL5U3-273" value="" style="edgeStyle=orthogonalEdgeStyle;rounded=0;orthogonalLoop=1;jettySize=auto;html=1;endArrow=none;endFill=0;" parent="1" edge="1">
          <mxGeometry relative="1" as="geometry">
            <mxPoint x="-1759" y="3488" as="sourcePoint" />
            <mxPoint x="-1759" y="4048" as="targetPoint" />
          </mxGeometry>
        </mxCell>
        <mxCell id="YgYwu3XMY0mxEqjxL5U3-274" value="Logstash" style="whiteSpace=wrap;html=1;aspect=fixed;" parent="1" vertex="1">
          <mxGeometry x="-1785" y="3438" width="50" height="50" as="geometry" />
        </mxCell>
        <mxCell id="YgYwu3XMY0mxEqjxL5U3-275" value="Logstash" style="whiteSpace=wrap;html=1;aspect=fixed;" parent="1" vertex="1">
          <mxGeometry x="-1785" y="4024" width="50" height="50" as="geometry" />
        </mxCell>
        <mxCell id="YgYwu3XMY0mxEqjxL5U3-276" value="" style="edgeStyle=orthogonalEdgeStyle;rounded=0;orthogonalLoop=1;jettySize=auto;html=1;endArrow=none;endFill=0;" parent="1" source="YgYwu3XMY0mxEqjxL5U3-277" target="YgYwu3XMY0mxEqjxL5U3-278" edge="1">
          <mxGeometry relative="1" as="geometry" />
        </mxCell>
        <mxCell id="YgYwu3XMY0mxEqjxL5U3-277" value="Elastic" style="whiteSpace=wrap;html=1;aspect=fixed;" parent="1" vertex="1">
          <mxGeometry x="-1885" y="3438" width="50" height="50" as="geometry" />
        </mxCell>
        <mxCell id="YgYwu3XMY0mxEqjxL5U3-278" value="Elastic" style="whiteSpace=wrap;html=1;aspect=fixed;" parent="1" vertex="1">
          <mxGeometry x="-1885" y="4024" width="50" height="50" as="geometry" />
        </mxCell>
        <mxCell id="YgYwu3XMY0mxEqjxL5U3-279" value="" style="edgeStyle=orthogonalEdgeStyle;rounded=0;orthogonalLoop=1;jettySize=auto;html=1;endArrow=none;endFill=0;" parent="1" source="YgYwu3XMY0mxEqjxL5U3-280" target="YgYwu3XMY0mxEqjxL5U3-281" edge="1">
          <mxGeometry relative="1" as="geometry" />
        </mxCell>
        <mxCell id="YgYwu3XMY0mxEqjxL5U3-280" value="Conf&lt;br&gt;Manager" style="whiteSpace=wrap;html=1;aspect=fixed;" parent="1" vertex="1">
          <mxGeometry x="-2167" y="3438" width="50" height="50" as="geometry" />
        </mxCell>
        <mxCell id="YgYwu3XMY0mxEqjxL5U3-281" value="Conf&lt;br&gt;Manager" style="whiteSpace=wrap;html=1;aspect=fixed;" parent="1" vertex="1">
          <mxGeometry x="-2167" y="4024" width="50" height="50" as="geometry" />
        </mxCell>
        <mxCell id="YgYwu3XMY0mxEqjxL5U3-282" value="" style="endArrow=classic;html=1;strokeColor=#000000;" parent="1" edge="1">
          <mxGeometry width="50" height="50" relative="1" as="geometry">
            <mxPoint x="-2137" y="3579" as="sourcePoint" />
            <mxPoint x="-1762" y="3579" as="targetPoint" />
          </mxGeometry>
        </mxCell>
        <mxCell id="YgYwu3XMY0mxEqjxL5U3-283" value="Configure pipeline" style="text;html=1;align=center;verticalAlign=middle;resizable=0;points=[];labelBackgroundColor=#ffffff;" parent="YgYwu3XMY0mxEqjxL5U3-282" vertex="1" connectable="0">
          <mxGeometry x="0.2341" y="1" relative="1" as="geometry">
            <mxPoint x="-146" as="offset" />
          </mxGeometry>
        </mxCell>
        <mxCell id="YgYwu3XMY0mxEqjxL5U3-284" value="" style="endArrow=classic;html=1;fontColor=#B0B0B0;" parent="1" edge="1">
          <mxGeometry width="50" height="50" relative="1" as="geometry">
            <mxPoint x="-2137" y="3536" as="sourcePoint" />
            <mxPoint x="-1492" y="3536" as="targetPoint" />
          </mxGeometry>
        </mxCell>
        <mxCell id="YgYwu3XMY0mxEqjxL5U3-285" value="&lt;font color=&quot;#000000&quot;&gt;Create topic list errorlevel&lt;/font&gt;" style="text;html=1;align=center;verticalAlign=middle;resizable=0;points=[];labelBackgroundColor=#ffffff;fontColor=#B0B0B0;" parent="YgYwu3XMY0mxEqjxL5U3-284" vertex="1" connectable="0">
          <mxGeometry x="0.1943" y="1" relative="1" as="geometry">
            <mxPoint x="-300" as="offset" />
          </mxGeometry>
        </mxCell>
        <mxCell id="YgYwu3XMY0mxEqjxL5U3-286" value="" style="edgeStyle=orthogonalEdgeStyle;rounded=0;orthogonalLoop=1;jettySize=auto;html=1;endArrow=none;endFill=0;" parent="1" source="YgYwu3XMY0mxEqjxL5U3-287" target="YgYwu3XMY0mxEqjxL5U3-288" edge="1">
          <mxGeometry relative="1" as="geometry" />
        </mxCell>
        <mxCell id="YgYwu3XMY0mxEqjxL5U3-287" value="Resource" style="whiteSpace=wrap;html=1;aspect=fixed;" parent="1" vertex="1">
          <mxGeometry x="-1327" y="3438" width="50" height="50" as="geometry" />
        </mxCell>
        <mxCell id="YgYwu3XMY0mxEqjxL5U3-288" value="Resource" style="whiteSpace=wrap;html=1;aspect=fixed;" parent="1" vertex="1">
          <mxGeometry x="-1327" y="4024" width="50" height="50" as="geometry" />
        </mxCell>
        <mxCell id="YgYwu3XMY0mxEqjxL5U3-289" value="" style="endArrow=none;html=1;strokeColor=#000000;endFill=0;startFill=1;startArrow=classic;" parent="1" edge="1">
          <mxGeometry width="50" height="50" relative="1" as="geometry">
            <mxPoint x="-1479" y="3617" as="sourcePoint" />
            <mxPoint x="-1309" y="3617" as="targetPoint" />
            <Array as="points">
              <mxPoint x="-1419" y="3617" />
            </Array>
          </mxGeometry>
        </mxCell>
        <mxCell id="YgYwu3XMY0mxEqjxL5U3-290" value="Log event" style="text;html=1;align=center;verticalAlign=middle;resizable=0;points=[];labelBackgroundColor=#ffffff;" parent="YgYwu3XMY0mxEqjxL5U3-289" vertex="1" connectable="0">
          <mxGeometry x="0.1943" y="1" relative="1" as="geometry">
            <mxPoint x="-12.86" as="offset" />
          </mxGeometry>
        </mxCell>
        <mxCell id="YgYwu3XMY0mxEqjxL5U3-291" value="" style="endArrow=none;html=1;strokeColor=#000000;endFill=0;startArrow=classic;startFill=1;" parent="1" edge="1">
          <mxGeometry width="50" height="50" relative="1" as="geometry">
            <mxPoint x="-1653" y="3659" as="sourcePoint" />
            <mxPoint x="-1492" y="3659" as="targetPoint" />
          </mxGeometry>
        </mxCell>
        <mxCell id="YgYwu3XMY0mxEqjxL5U3-292" value="Push event" style="text;html=1;align=center;verticalAlign=middle;resizable=0;points=[];labelBackgroundColor=#ffffff;" parent="YgYwu3XMY0mxEqjxL5U3-291" vertex="1" connectable="0">
          <mxGeometry x="0.1943" y="1" relative="1" as="geometry">
            <mxPoint x="4" as="offset" />
          </mxGeometry>
        </mxCell>
        <mxCell id="YgYwu3XMY0mxEqjxL5U3-293" value="" style="endArrow=none;html=1;strokeColor=#000000;endFill=0;startArrow=classic;startFill=1;" parent="1" edge="1">
          <mxGeometry width="50" height="50" relative="1" as="geometry">
            <mxPoint x="-1755" y="3697" as="sourcePoint" />
            <mxPoint x="-1665" y="3697" as="targetPoint" />
            <Array as="points">
              <mxPoint x="-1705" y="3697" />
              <mxPoint x="-1685" y="3697" />
            </Array>
          </mxGeometry>
        </mxCell>
        <mxCell id="YgYwu3XMY0mxEqjxL5U3-294" value="Push event" style="text;html=1;align=center;verticalAlign=middle;resizable=0;points=[];labelBackgroundColor=#ffffff;" parent="YgYwu3XMY0mxEqjxL5U3-293" vertex="1" connectable="0">
          <mxGeometry x="0.1943" y="1" relative="1" as="geometry">
            <mxPoint x="-12.86" as="offset" />
          </mxGeometry>
        </mxCell>
        <mxCell id="YgYwu3XMY0mxEqjxL5U3-295" value="" style="endArrow=none;html=1;strokeColor=#000000;endFill=0;startArrow=classic;startFill=1;" parent="1" edge="1">
          <mxGeometry width="50" height="50" relative="1" as="geometry">
            <mxPoint x="-1855" y="3747" as="sourcePoint" />
            <mxPoint x="-1765" y="3747" as="targetPoint" />
          </mxGeometry>
        </mxCell>
        <mxCell id="YgYwu3XMY0mxEqjxL5U3-296" value="Index event" style="text;html=1;align=center;verticalAlign=middle;resizable=0;points=[];labelBackgroundColor=#ffffff;" parent="YgYwu3XMY0mxEqjxL5U3-295" vertex="1" connectable="0">
          <mxGeometry x="0.1943" y="1" relative="1" as="geometry">
            <mxPoint x="-2.8599999999999994" y="-6" as="offset" />
          </mxGeometry>
        </mxCell>
        <mxCell id="YgYwu3XMY0mxEqjxL5U3-297" value="" style="endArrow=none;html=1;strokeColor=#000000;endFill=0;startFill=1;startArrow=classic;" parent="1" edge="1">
          <mxGeometry width="50" height="50" relative="1" as="geometry">
            <mxPoint x="-2292" y="3894" as="sourcePoint" />
            <mxPoint x="-1972" y="3894" as="targetPoint" />
          </mxGeometry>
        </mxCell>
        <mxCell id="YgYwu3XMY0mxEqjxL5U3-298" value="alert" style="text;html=1;align=center;verticalAlign=middle;resizable=0;points=[];labelBackgroundColor=#ffffff;" parent="YgYwu3XMY0mxEqjxL5U3-297" vertex="1" connectable="0">
          <mxGeometry x="0.1943" y="1" relative="1" as="geometry">
            <mxPoint x="49" y="1" as="offset" />
          </mxGeometry>
        </mxCell>
        <mxCell id="YgYwu3XMY0mxEqjxL5U3-299" value="" style="edgeStyle=orthogonalEdgeStyle;rounded=0;orthogonalLoop=1;jettySize=auto;html=1;endArrow=none;endFill=0;" parent="1" source="YgYwu3XMY0mxEqjxL5U3-300" target="YgYwu3XMY0mxEqjxL5U3-301" edge="1">
          <mxGeometry relative="1" as="geometry" />
        </mxCell>
        <mxCell id="YgYwu3XMY0mxEqjxL5U3-300" value="Alert&lt;br&gt;Manager" style="whiteSpace=wrap;html=1;aspect=fixed;" parent="1" vertex="1">
          <mxGeometry x="-2322" y="3438" width="50" height="50" as="geometry" />
        </mxCell>
        <mxCell id="YgYwu3XMY0mxEqjxL5U3-301" value="Alert&lt;br&gt;Manager" style="whiteSpace=wrap;html=1;aspect=fixed;" parent="1" vertex="1">
          <mxGeometry x="-2322" y="4024" width="50" height="50" as="geometry" />
        </mxCell>
        <mxCell id="YgYwu3XMY0mxEqjxL5U3-302" value="" style="edgeStyle=orthogonalEdgeStyle;rounded=0;orthogonalLoop=1;jettySize=auto;html=1;endArrow=none;endFill=0;" parent="1" source="YgYwu3XMY0mxEqjxL5U3-303" target="YgYwu3XMY0mxEqjxL5U3-304" edge="1">
          <mxGeometry relative="1" as="geometry" />
        </mxCell>
        <mxCell id="YgYwu3XMY0mxEqjxL5U3-303" value="Elast Alert" style="whiteSpace=wrap;html=1;aspect=fixed;" parent="1" vertex="1">
          <mxGeometry x="-1992" y="3438" width="50" height="50" as="geometry" />
        </mxCell>
        <mxCell id="YgYwu3XMY0mxEqjxL5U3-304" value="Elast Alert" style="whiteSpace=wrap;html=1;aspect=fixed;" parent="1" vertex="1">
          <mxGeometry x="-1992" y="4024" width="50" height="50" as="geometry" />
        </mxCell>
        <mxCell id="YgYwu3XMY0mxEqjxL5U3-305" value="" style="endArrow=classic;html=1;strokeColor=#000000;" parent="1" edge="1">
          <mxGeometry width="50" height="50" relative="1" as="geometry">
            <mxPoint x="-2292" y="3749" as="sourcePoint" />
            <mxPoint x="-1972" y="3749" as="targetPoint" />
          </mxGeometry>
        </mxCell>
        <mxCell id="YgYwu3XMY0mxEqjxL5U3-306" value="Configure alert rule" style="text;html=1;align=center;verticalAlign=middle;resizable=0;points=[];labelBackgroundColor=#ffffff;" parent="YgYwu3XMY0mxEqjxL5U3-305" vertex="1" connectable="0">
          <mxGeometry x="0.2341" y="1" relative="1" as="geometry">
            <mxPoint x="-126" as="offset" />
          </mxGeometry>
        </mxCell>
        <mxCell id="YgYwu3XMY0mxEqjxL5U3-307" value="" style="endArrow=none;html=1;strokeColor=#000000;endFill=0;startArrow=classic;startFill=1;" parent="1" edge="1">
          <mxGeometry width="50" height="50" relative="1" as="geometry">
            <mxPoint x="-1862" y="3881" as="sourcePoint" />
            <mxPoint x="-1962" y="3881" as="targetPoint" />
            <Array as="points" />
          </mxGeometry>
        </mxCell>
        <mxCell id="YgYwu3XMY0mxEqjxL5U3-308" value="check&amp;nbsp; index" style="edgeLabel;html=1;align=center;verticalAlign=middle;resizable=0;points=[];" parent="YgYwu3XMY0mxEqjxL5U3-307" vertex="1" connectable="0">
          <mxGeometry x="0.24" relative="1" as="geometry">
            <mxPoint as="offset" />
          </mxGeometry>
        </mxCell>
        <mxCell id="YgYwu3XMY0mxEqjxL5U3-309" value="" style="edgeStyle=orthogonalEdgeStyle;rounded=0;orthogonalLoop=1;jettySize=auto;html=1;strokeColor=#000000;" parent="1" source="YgYwu3XMY0mxEqjxL5U3-311" target="YgYwu3XMY0mxEqjxL5U3-320" edge="1">
          <mxGeometry relative="1" as="geometry" />
        </mxCell>
        <mxCell id="YgYwu3XMY0mxEqjxL5U3-310" value="" style="edgeStyle=orthogonalEdgeStyle;rounded=0;orthogonalLoop=1;jettySize=auto;html=1;strokeColor=#000000;" parent="1" source="YgYwu3XMY0mxEqjxL5U3-311" target="YgYwu3XMY0mxEqjxL5U3-321" edge="1">
          <mxGeometry relative="1" as="geometry" />
        </mxCell>
        <mxCell id="YgYwu3XMY0mxEqjxL5U3-311" value="" style="ellipse;whiteSpace=wrap;html=1;" parent="1" vertex="1">
          <mxGeometry x="-1932" y="3008" width="78" height="60" as="geometry" />
        </mxCell>
        <mxCell id="YgYwu3XMY0mxEqjxL5U3-312" value="" style="edgeStyle=orthogonalEdgeStyle;rounded=0;orthogonalLoop=1;jettySize=auto;html=1;" parent="1" source="YgYwu3XMY0mxEqjxL5U3-313" target="YgYwu3XMY0mxEqjxL5U3-311" edge="1">
          <mxGeometry relative="1" as="geometry" />
        </mxCell>
        <mxCell id="YgYwu3XMY0mxEqjxL5U3-313" value="" style="html=1;shadow=0;dashed=0;align=center;verticalAlign=middle;shape=mxgraph.arrows2.jumpInArrow;dy=15;dx=38;arrowHead=55;" parent="1" vertex="1">
          <mxGeometry x="-2167" y="3058" width="100" height="100" as="geometry" />
        </mxCell>
        <mxCell id="YgYwu3XMY0mxEqjxL5U3-314" value="" style="edgeStyle=orthogonalEdgeStyle;rounded=0;orthogonalLoop=1;jettySize=auto;html=1;" parent="1" source="YgYwu3XMY0mxEqjxL5U3-315" target="YgYwu3XMY0mxEqjxL5U3-313" edge="1">
          <mxGeometry relative="1" as="geometry" />
        </mxCell>
        <mxCell id="YgYwu3XMY0mxEqjxL5U3-315" value="" style="shape=image;html=1;verticalLabelPosition=bottom;verticalAlign=top;imageAspect=0;image=img/clipart/Gear_128x128.png" parent="1" vertex="1">
          <mxGeometry x="-1324" y="3278" width="50" height="60" as="geometry" />
        </mxCell>
        <mxCell id="YgYwu3XMY0mxEqjxL5U3-316" value="" style="edgeStyle=orthogonalEdgeStyle;rounded=0;orthogonalLoop=1;jettySize=auto;html=1;" parent="1" source="YgYwu3XMY0mxEqjxL5U3-317" target="YgYwu3XMY0mxEqjxL5U3-315" edge="1">
          <mxGeometry relative="1" as="geometry" />
        </mxCell>
        <mxCell id="YgYwu3XMY0mxEqjxL5U3-317" value="" style="rhombus;whiteSpace=wrap;html=1;strokeWidth=2;fillWeight=-1;hachureGap=8;fillStyle=cross-hatch;fillColor=#006600;sketch=1;" parent="1" vertex="1">
          <mxGeometry x="-1459" y="3198" width="120" height="60" as="geometry" />
        </mxCell>
        <mxCell id="YgYwu3XMY0mxEqjxL5U3-318" value="Button" style="labelPosition=center;verticalLabelPosition=middle;align=center;html=1;shape=mxgraph.basic.shaded_button;dx=10;fillColor=#E6E6E6;strokeColor=none;" parent="1" vertex="1">
          <mxGeometry x="-2067" y="2608" width="100" height="60" as="geometry" />
        </mxCell>
        <mxCell id="YgYwu3XMY0mxEqjxL5U3-319" style="edgeStyle=orthogonalEdgeStyle;rounded=0;orthogonalLoop=1;jettySize=auto;html=1;strokeColor=#000000;entryX=0.5;entryY=0;entryDx=0;entryDy=0;" parent="1" source="YgYwu3XMY0mxEqjxL5U3-320" target="YgYwu3XMY0mxEqjxL5U3-317" edge="1">
          <mxGeometry relative="1" as="geometry">
            <mxPoint x="-1452" y="3118" as="targetPoint" />
          </mxGeometry>
        </mxCell>
        <mxCell id="YgYwu3XMY0mxEqjxL5U3-320" value="" style="shape=mxgraph.bpmn.shape;html=1;verticalLabelPosition=bottom;labelBackgroundColor=#ffffff;verticalAlign=top;align=center;perimeter=ellipsePerimeter;outlineConnect=0;outline=boundInt;symbol=error;" parent="1" vertex="1">
          <mxGeometry x="-1532" y="3088" width="50" height="50" as="geometry" />
        </mxCell>
        <mxCell id="YgYwu3XMY0mxEqjxL5U3-321" value="" style="shape=parallelogram;perimeter=parallelogramPerimeter;whiteSpace=wrap;html=1;fixedSize=1;" parent="1" vertex="1">
          <mxGeometry x="-1735" y="2838" width="120" height="110" as="geometry" />
        </mxCell>
        <mxCell id="YgYwu3XMY0mxEqjxL5U3-322" value="" style="edgeStyle=orthogonalEdgeStyle;rounded=0;orthogonalLoop=1;jettySize=auto;html=1;strokeColor=#000000;" parent="1" source="YgYwu3XMY0mxEqjxL5U3-323" target="YgYwu3XMY0mxEqjxL5U3-329" edge="1">
          <mxGeometry relative="1" as="geometry" />
        </mxCell>
        <mxCell id="YgYwu3XMY0mxEqjxL5U3-323" value="" style="whiteSpace=wrap;html=1;shape=mxgraph.basic.isocube;isoAngle=15;" parent="1" vertex="1">
          <mxGeometry x="-2132" y="2728" width="100" height="100" as="geometry" />
        </mxCell>
        <mxCell id="YgYwu3XMY0mxEqjxL5U3-324" style="edgeStyle=orthogonalEdgeStyle;rounded=0;orthogonalLoop=1;jettySize=auto;html=1;entryX=0;entryY=0;entryDx=73.5;entryDy=0;entryPerimeter=0;" parent="1" source="YgYwu3XMY0mxEqjxL5U3-325" target="YgYwu3XMY0mxEqjxL5U3-330" edge="1">
          <mxGeometry relative="1" as="geometry" />
        </mxCell>
        <mxCell id="YgYwu3XMY0mxEqjxL5U3-325" value="" style="whiteSpace=wrap;html=1;shape=mxgraph.basic.isocube;isoAngle=15;" parent="1" vertex="1">
          <mxGeometry x="-2282" y="2558" width="100" height="100" as="geometry" />
        </mxCell>
        <mxCell id="YgYwu3XMY0mxEqjxL5U3-326" style="edgeStyle=orthogonalEdgeStyle;rounded=0;orthogonalLoop=1;jettySize=auto;html=1;strokeColor=#000000;" parent="1" source="YgYwu3XMY0mxEqjxL5U3-327" edge="1">
          <mxGeometry relative="1" as="geometry">
            <mxPoint x="-1922" y="3238" as="targetPoint" />
          </mxGeometry>
        </mxCell>
        <mxCell id="YgYwu3XMY0mxEqjxL5U3-327" value="" style="shape=mxgraph.bpmn.script_task;html=1;outlineConnect=0;" parent="1" vertex="1">
          <mxGeometry x="-1982" y="3158" width="10" height="14" as="geometry" />
        </mxCell>
        <mxCell id="YgYwu3XMY0mxEqjxL5U3-328" value="" style="html=1;shadow=0;dashed=0;align=center;verticalAlign=middle;shape=mxgraph.arrows2.quadArrow;dy=10;dx=20;notch=24;arrowHead=10;" parent="1" vertex="1">
          <mxGeometry x="-2322" y="3138" width="100" height="100" as="geometry" />
        </mxCell>
        <mxCell id="YgYwu3XMY0mxEqjxL5U3-329" value="" style="ellipse;shape=cloud;whiteSpace=wrap;html=1;" parent="1" vertex="1">
          <mxGeometry x="-1905" y="2738" width="120" height="80" as="geometry" />
        </mxCell>
        <mxCell id="YgYwu3XMY0mxEqjxL5U3-330" value="" style="verticalLabelPosition=bottom;verticalAlign=top;html=1;shape=mxgraph.basic.pyramid;dx1=0.49;dx2=0;dy1=0.08;dy2=1;rotation=-60;" parent="1" vertex="1">
          <mxGeometry x="-1442" y="2558" width="150" height="200" as="geometry" />
        </mxCell>
        <mxCell id="YgYwu3XMY0mxEqjxL5U3-331" style="edgeStyle=orthogonalEdgeStyle;rounded=0;orthogonalLoop=1;jettySize=auto;html=1;entryX=0.5;entryY=1;entryDx=0;entryDy=0;entryPerimeter=0;" parent="1" source="YgYwu3XMY0mxEqjxL5U3-332" target="YgYwu3XMY0mxEqjxL5U3-325" edge="1">
          <mxGeometry relative="1" as="geometry" />
        </mxCell>
        <mxCell id="YgYwu3XMY0mxEqjxL5U3-332" value="" style="verticalLabelPosition=bottom;verticalAlign=top;html=1;shape=mxgraph.basic.cone2;dx=0.5;dy=0.68;" parent="1" vertex="1">
          <mxGeometry x="-2282" y="2908" width="100" height="100" as="geometry" />
        </mxCell>
        <mxCell id="YgYwu3XMY0mxEqjxL5U3-399" value="" style="edgeStyle=orthogonalEdgeStyle;rounded=0;orthogonalLoop=1;jettySize=auto;html=1;endArrow=none;endFill=0;" parent="1" source="YgYwu3XMY0mxEqjxL5U3-400" target="YgYwu3XMY0mxEqjxL5U3-401" edge="1">
          <mxGeometry relative="1" as="geometry" />
        </mxCell>
        <mxCell id="YgYwu3XMY0mxEqjxL5U3-400" value="Kafka" style="whiteSpace=wrap;html=1;aspect=fixed;" parent="1" vertex="1">
          <mxGeometry x="-709" y="3459" width="50" height="50" as="geometry" />
        </mxCell>
        <mxCell id="YgYwu3XMY0mxEqjxL5U3-401" value="Kafka" style="whiteSpace=wrap;html=1;aspect=fixed;" parent="1" vertex="1">
          <mxGeometry x="-709" y="4045" width="50" height="50" as="geometry" />
        </mxCell>
        <mxCell id="YgYwu3XMY0mxEqjxL5U3-402" value="" style="edgeStyle=orthogonalEdgeStyle;rounded=0;orthogonalLoop=1;jettySize=auto;html=1;endArrow=none;endFill=0;" parent="1" source="YgYwu3XMY0mxEqjxL5U3-403" target="YgYwu3XMY0mxEqjxL5U3-404" edge="1">
          <mxGeometry relative="1" as="geometry" />
        </mxCell>
        <mxCell id="YgYwu3XMY0mxEqjxL5U3-403" value="filebeat" style="whiteSpace=wrap;html=1;aspect=fixed;" parent="1" vertex="1">
          <mxGeometry x="-533" y="3459" width="50" height="50" as="geometry" />
        </mxCell>
        <mxCell id="YgYwu3XMY0mxEqjxL5U3-404" value="filebeat" style="whiteSpace=wrap;html=1;aspect=fixed;" parent="1" vertex="1">
          <mxGeometry x="-533" y="4045" width="50" height="50" as="geometry" />
        </mxCell>
        <mxCell id="YgYwu3XMY0mxEqjxL5U3-405" value="" style="edgeStyle=orthogonalEdgeStyle;rounded=0;orthogonalLoop=1;jettySize=auto;html=1;endArrow=none;endFill=0;" parent="1" edge="1">
          <mxGeometry relative="1" as="geometry">
            <mxPoint x="-783" y="3509" as="sourcePoint" />
            <mxPoint x="-783" y="4069" as="targetPoint" />
          </mxGeometry>
        </mxCell>
        <mxCell id="YgYwu3XMY0mxEqjxL5U3-406" value="Logstash" style="whiteSpace=wrap;html=1;aspect=fixed;" parent="1" vertex="1">
          <mxGeometry x="-809" y="3459" width="50" height="50" as="geometry" />
        </mxCell>
        <mxCell id="YgYwu3XMY0mxEqjxL5U3-407" value="Logstash" style="whiteSpace=wrap;html=1;aspect=fixed;" parent="1" vertex="1">
          <mxGeometry x="-809" y="4045" width="50" height="50" as="geometry" />
        </mxCell>
        <mxCell id="YgYwu3XMY0mxEqjxL5U3-408" value="" style="edgeStyle=orthogonalEdgeStyle;rounded=0;orthogonalLoop=1;jettySize=auto;html=1;endArrow=none;endFill=0;" parent="1" source="YgYwu3XMY0mxEqjxL5U3-409" target="YgYwu3XMY0mxEqjxL5U3-410" edge="1">
          <mxGeometry relative="1" as="geometry" />
        </mxCell>
        <mxCell id="YgYwu3XMY0mxEqjxL5U3-409" value="Elastic" style="whiteSpace=wrap;html=1;aspect=fixed;" parent="1" vertex="1">
          <mxGeometry x="-909" y="3459" width="50" height="50" as="geometry" />
        </mxCell>
        <mxCell id="YgYwu3XMY0mxEqjxL5U3-410" value="Elastic" style="whiteSpace=wrap;html=1;aspect=fixed;" parent="1" vertex="1">
          <mxGeometry x="-909" y="4045" width="50" height="50" as="geometry" />
        </mxCell>
        <mxCell id="YgYwu3XMY0mxEqjxL5U3-411" value="" style="edgeStyle=orthogonalEdgeStyle;rounded=0;orthogonalLoop=1;jettySize=auto;html=1;endArrow=none;endFill=0;" parent="1" source="YgYwu3XMY0mxEqjxL5U3-412" target="YgYwu3XMY0mxEqjxL5U3-413" edge="1">
          <mxGeometry relative="1" as="geometry" />
        </mxCell>
        <mxCell id="YgYwu3XMY0mxEqjxL5U3-412" value="Conf&lt;br&gt;Manager" style="whiteSpace=wrap;html=1;aspect=fixed;" parent="1" vertex="1">
          <mxGeometry x="-1191" y="3459" width="50" height="50" as="geometry" />
        </mxCell>
        <mxCell id="YgYwu3XMY0mxEqjxL5U3-413" value="Conf&lt;br&gt;Manager" style="whiteSpace=wrap;html=1;aspect=fixed;" parent="1" vertex="1">
          <mxGeometry x="-1191" y="4045" width="50" height="50" as="geometry" />
        </mxCell>
        <mxCell id="YgYwu3XMY0mxEqjxL5U3-414" value="" style="endArrow=classic;html=1;strokeColor=#000000;" parent="1" edge="1">
          <mxGeometry width="50" height="50" relative="1" as="geometry">
            <mxPoint x="-1161" y="3600" as="sourcePoint" />
            <mxPoint x="-786" y="3600" as="targetPoint" />
          </mxGeometry>
        </mxCell>
        <mxCell id="YgYwu3XMY0mxEqjxL5U3-415" value="Configure pipeline" style="text;html=1;align=center;verticalAlign=middle;resizable=0;points=[];labelBackgroundColor=#ffffff;" parent="YgYwu3XMY0mxEqjxL5U3-414" vertex="1" connectable="0">
          <mxGeometry x="0.2341" y="1" relative="1" as="geometry">
            <mxPoint x="-146" as="offset" />
          </mxGeometry>
        </mxCell>
        <mxCell id="YgYwu3XMY0mxEqjxL5U3-416" value="" style="endArrow=classic;html=1;fontColor=#B0B0B0;" parent="1" edge="1">
          <mxGeometry width="50" height="50" relative="1" as="geometry">
            <mxPoint x="-1161" y="3557" as="sourcePoint" />
            <mxPoint x="-516" y="3557" as="targetPoint" />
          </mxGeometry>
        </mxCell>
        <mxCell id="YgYwu3XMY0mxEqjxL5U3-417" value="&lt;font color=&quot;#000000&quot;&gt;Create topic list errorlevel&lt;/font&gt;" style="text;html=1;align=center;verticalAlign=middle;resizable=0;points=[];labelBackgroundColor=#ffffff;fontColor=#B0B0B0;" parent="YgYwu3XMY0mxEqjxL5U3-416" vertex="1" connectable="0">
          <mxGeometry x="0.1943" y="1" relative="1" as="geometry">
            <mxPoint x="-300" as="offset" />
          </mxGeometry>
        </mxCell>
        <mxCell id="YgYwu3XMY0mxEqjxL5U3-418" value="" style="edgeStyle=orthogonalEdgeStyle;rounded=0;orthogonalLoop=1;jettySize=auto;html=1;endArrow=none;endFill=0;" parent="1" source="YgYwu3XMY0mxEqjxL5U3-419" target="YgYwu3XMY0mxEqjxL5U3-420" edge="1">
          <mxGeometry relative="1" as="geometry" />
        </mxCell>
        <mxCell id="YgYwu3XMY0mxEqjxL5U3-419" value="Resource" style="whiteSpace=wrap;html=1;aspect=fixed;" parent="1" vertex="1">
          <mxGeometry x="-351" y="3459" width="50" height="50" as="geometry" />
        </mxCell>
        <mxCell id="YgYwu3XMY0mxEqjxL5U3-420" value="Resource" style="whiteSpace=wrap;html=1;aspect=fixed;" parent="1" vertex="1">
          <mxGeometry x="-351" y="4045" width="50" height="50" as="geometry" />
        </mxCell>
        <mxCell id="YgYwu3XMY0mxEqjxL5U3-421" value="" style="endArrow=none;html=1;strokeColor=#000000;endFill=0;startFill=1;startArrow=classic;" parent="1" edge="1">
          <mxGeometry width="50" height="50" relative="1" as="geometry">
            <mxPoint x="-503" y="3638" as="sourcePoint" />
            <mxPoint x="-333" y="3638" as="targetPoint" />
            <Array as="points">
              <mxPoint x="-443" y="3638" />
            </Array>
          </mxGeometry>
        </mxCell>
        <mxCell id="YgYwu3XMY0mxEqjxL5U3-422" value="Log event" style="text;html=1;align=center;verticalAlign=middle;resizable=0;points=[];labelBackgroundColor=#ffffff;" parent="YgYwu3XMY0mxEqjxL5U3-421" vertex="1" connectable="0">
          <mxGeometry x="0.1943" y="1" relative="1" as="geometry">
            <mxPoint x="-12.86" as="offset" />
          </mxGeometry>
        </mxCell>
        <mxCell id="YgYwu3XMY0mxEqjxL5U3-423" value="" style="endArrow=none;html=1;strokeColor=#000000;endFill=0;startArrow=classic;startFill=1;" parent="1" edge="1">
          <mxGeometry width="50" height="50" relative="1" as="geometry">
            <mxPoint x="-677" y="3680" as="sourcePoint" />
            <mxPoint x="-516" y="3680" as="targetPoint" />
          </mxGeometry>
        </mxCell>
        <mxCell id="YgYwu3XMY0mxEqjxL5U3-424" value="Push event" style="text;html=1;align=center;verticalAlign=middle;resizable=0;points=[];labelBackgroundColor=#ffffff;" parent="YgYwu3XMY0mxEqjxL5U3-423" vertex="1" connectable="0">
          <mxGeometry x="0.1943" y="1" relative="1" as="geometry">
            <mxPoint x="4" as="offset" />
          </mxGeometry>
        </mxCell>
        <mxCell id="YgYwu3XMY0mxEqjxL5U3-425" value="" style="endArrow=none;html=1;strokeColor=#000000;endFill=0;startArrow=classic;startFill=1;" parent="1" edge="1">
          <mxGeometry width="50" height="50" relative="1" as="geometry">
            <mxPoint x="-779" y="3718" as="sourcePoint" />
            <mxPoint x="-689" y="3718" as="targetPoint" />
            <Array as="points">
              <mxPoint x="-729" y="3718" />
              <mxPoint x="-709" y="3718" />
            </Array>
          </mxGeometry>
        </mxCell>
        <mxCell id="YgYwu3XMY0mxEqjxL5U3-426" value="Push event" style="text;html=1;align=center;verticalAlign=middle;resizable=0;points=[];labelBackgroundColor=#ffffff;" parent="YgYwu3XMY0mxEqjxL5U3-425" vertex="1" connectable="0">
          <mxGeometry x="0.1943" y="1" relative="1" as="geometry">
            <mxPoint x="-12.86" as="offset" />
          </mxGeometry>
        </mxCell>
        <mxCell id="YgYwu3XMY0mxEqjxL5U3-427" value="" style="endArrow=none;html=1;strokeColor=#000000;endFill=0;startArrow=classic;startFill=1;" parent="1" edge="1">
          <mxGeometry width="50" height="50" relative="1" as="geometry">
            <mxPoint x="-879" y="3768" as="sourcePoint" />
            <mxPoint x="-789" y="3768" as="targetPoint" />
          </mxGeometry>
        </mxCell>
        <mxCell id="YgYwu3XMY0mxEqjxL5U3-428" value="Index event" style="text;html=1;align=center;verticalAlign=middle;resizable=0;points=[];labelBackgroundColor=#ffffff;" parent="YgYwu3XMY0mxEqjxL5U3-427" vertex="1" connectable="0">
          <mxGeometry x="0.1943" y="1" relative="1" as="geometry">
            <mxPoint x="-2.8599999999999994" y="-6" as="offset" />
          </mxGeometry>
        </mxCell>
        <mxCell id="YgYwu3XMY0mxEqjxL5U3-429" value="" style="endArrow=none;html=1;strokeColor=#000000;endFill=0;startFill=1;startArrow=classic;" parent="1" edge="1">
          <mxGeometry width="50" height="50" relative="1" as="geometry">
            <mxPoint x="-1316" y="3915" as="sourcePoint" />
            <mxPoint x="-996" y="3915" as="targetPoint" />
          </mxGeometry>
        </mxCell>
        <mxCell id="YgYwu3XMY0mxEqjxL5U3-430" value="alert" style="text;html=1;align=center;verticalAlign=middle;resizable=0;points=[];labelBackgroundColor=#ffffff;" parent="YgYwu3XMY0mxEqjxL5U3-429" vertex="1" connectable="0">
          <mxGeometry x="0.1943" y="1" relative="1" as="geometry">
            <mxPoint x="49" y="1" as="offset" />
          </mxGeometry>
        </mxCell>
        <mxCell id="YgYwu3XMY0mxEqjxL5U3-431" value="" style="edgeStyle=orthogonalEdgeStyle;rounded=0;orthogonalLoop=1;jettySize=auto;html=1;endArrow=none;endFill=0;" parent="1" source="YgYwu3XMY0mxEqjxL5U3-432" target="YgYwu3XMY0mxEqjxL5U3-433" edge="1">
          <mxGeometry relative="1" as="geometry" />
        </mxCell>
        <mxCell id="YgYwu3XMY0mxEqjxL5U3-432" value="Alert&lt;br&gt;Manager" style="whiteSpace=wrap;html=1;aspect=fixed;" parent="1" vertex="1">
          <mxGeometry x="-1346" y="3459" width="50" height="50" as="geometry" />
        </mxCell>
        <mxCell id="YgYwu3XMY0mxEqjxL5U3-433" value="Alert&lt;br&gt;Manager" style="whiteSpace=wrap;html=1;aspect=fixed;" parent="1" vertex="1">
          <mxGeometry x="-1346" y="4045" width="50" height="50" as="geometry" />
        </mxCell>
        <mxCell id="YgYwu3XMY0mxEqjxL5U3-434" value="" style="edgeStyle=orthogonalEdgeStyle;rounded=0;orthogonalLoop=1;jettySize=auto;html=1;endArrow=none;endFill=0;" parent="1" source="YgYwu3XMY0mxEqjxL5U3-435" target="YgYwu3XMY0mxEqjxL5U3-436" edge="1">
          <mxGeometry relative="1" as="geometry" />
        </mxCell>
        <mxCell id="YgYwu3XMY0mxEqjxL5U3-435" value="Elast Alert" style="whiteSpace=wrap;html=1;aspect=fixed;" parent="1" vertex="1">
          <mxGeometry x="-1016" y="3459" width="50" height="50" as="geometry" />
        </mxCell>
        <mxCell id="YgYwu3XMY0mxEqjxL5U3-436" value="Elast Alert" style="whiteSpace=wrap;html=1;aspect=fixed;" parent="1" vertex="1">
          <mxGeometry x="-1016" y="4045" width="50" height="50" as="geometry" />
        </mxCell>
        <mxCell id="YgYwu3XMY0mxEqjxL5U3-437" value="" style="endArrow=classic;html=1;strokeColor=#000000;" parent="1" edge="1">
          <mxGeometry width="50" height="50" relative="1" as="geometry">
            <mxPoint x="-1316" y="3770" as="sourcePoint" />
            <mxPoint x="-996" y="3770" as="targetPoint" />
          </mxGeometry>
        </mxCell>
        <mxCell id="YgYwu3XMY0mxEqjxL5U3-438" value="Configure alert rule" style="text;html=1;align=center;verticalAlign=middle;resizable=0;points=[];labelBackgroundColor=#ffffff;" parent="YgYwu3XMY0mxEqjxL5U3-437" vertex="1" connectable="0">
          <mxGeometry x="0.2341" y="1" relative="1" as="geometry">
            <mxPoint x="-126" as="offset" />
          </mxGeometry>
        </mxCell>
        <mxCell id="YgYwu3XMY0mxEqjxL5U3-439" value="" style="endArrow=none;html=1;strokeColor=#000000;endFill=0;startArrow=classic;startFill=1;" parent="1" edge="1">
          <mxGeometry width="50" height="50" relative="1" as="geometry">
            <mxPoint x="-886" y="3902" as="sourcePoint" />
            <mxPoint x="-986" y="3902" as="targetPoint" />
            <Array as="points" />
          </mxGeometry>
        </mxCell>
        <mxCell id="YgYwu3XMY0mxEqjxL5U3-440" value="check&amp;nbsp; index" style="edgeLabel;html=1;align=center;verticalAlign=middle;resizable=0;points=[];" parent="YgYwu3XMY0mxEqjxL5U3-439" vertex="1" connectable="0">
          <mxGeometry x="0.24" relative="1" as="geometry">
            <mxPoint as="offset" />
          </mxGeometry>
        </mxCell>
        <mxCell id="YgYwu3XMY0mxEqjxL5U3-441" value="" style="edgeStyle=orthogonalEdgeStyle;rounded=0;orthogonalLoop=1;jettySize=auto;html=1;strokeColor=#000000;" parent="1" source="YgYwu3XMY0mxEqjxL5U3-443" target="YgYwu3XMY0mxEqjxL5U3-452" edge="1">
          <mxGeometry relative="1" as="geometry" />
        </mxCell>
        <mxCell id="YgYwu3XMY0mxEqjxL5U3-442" value="" style="edgeStyle=orthogonalEdgeStyle;rounded=0;orthogonalLoop=1;jettySize=auto;html=1;strokeColor=#000000;" parent="1" source="YgYwu3XMY0mxEqjxL5U3-443" target="YgYwu3XMY0mxEqjxL5U3-453" edge="1">
          <mxGeometry relative="1" as="geometry" />
        </mxCell>
        <mxCell id="YgYwu3XMY0mxEqjxL5U3-443" value="" style="ellipse;whiteSpace=wrap;html=1;" parent="1" vertex="1">
          <mxGeometry x="-956" y="3029" width="78" height="60" as="geometry" />
        </mxCell>
        <mxCell id="YgYwu3XMY0mxEqjxL5U3-444" value="" style="edgeStyle=orthogonalEdgeStyle;rounded=0;orthogonalLoop=1;jettySize=auto;html=1;" parent="1" source="YgYwu3XMY0mxEqjxL5U3-445" target="YgYwu3XMY0mxEqjxL5U3-443" edge="1">
          <mxGeometry relative="1" as="geometry" />
        </mxCell>
        <mxCell id="YgYwu3XMY0mxEqjxL5U3-445" value="" style="html=1;shadow=0;dashed=0;align=center;verticalAlign=middle;shape=mxgraph.arrows2.jumpInArrow;dy=15;dx=38;arrowHead=55;" parent="1" vertex="1">
          <mxGeometry x="-1191" y="3079" width="100" height="100" as="geometry" />
        </mxCell>
        <mxCell id="YgYwu3XMY0mxEqjxL5U3-446" value="" style="edgeStyle=orthogonalEdgeStyle;rounded=0;orthogonalLoop=1;jettySize=auto;html=1;" parent="1" source="YgYwu3XMY0mxEqjxL5U3-447" target="YgYwu3XMY0mxEqjxL5U3-445" edge="1">
          <mxGeometry relative="1" as="geometry" />
        </mxCell>
        <mxCell id="YgYwu3XMY0mxEqjxL5U3-447" value="" style="shape=image;html=1;verticalLabelPosition=bottom;verticalAlign=top;imageAspect=0;image=img/clipart/Gear_128x128.png" parent="1" vertex="1">
          <mxGeometry x="-176" y="3299" width="50" height="60" as="geometry" />
        </mxCell>
        <mxCell id="YgYwu3XMY0mxEqjxL5U3-448" value="" style="edgeStyle=orthogonalEdgeStyle;rounded=0;orthogonalLoop=1;jettySize=auto;html=1;" parent="1" source="YgYwu3XMY0mxEqjxL5U3-449" target="YgYwu3XMY0mxEqjxL5U3-447" edge="1">
          <mxGeometry relative="1" as="geometry" />
        </mxCell>
        <mxCell id="YgYwu3XMY0mxEqjxL5U3-449" value="" style="rhombus;whiteSpace=wrap;html=1;strokeWidth=2;fillWeight=-1;hachureGap=8;fillStyle=cross-hatch;fillColor=#006600;sketch=1;" parent="1" vertex="1">
          <mxGeometry x="-483" y="3219" width="120" height="60" as="geometry" />
        </mxCell>
        <mxCell id="YgYwu3XMY0mxEqjxL5U3-450" value="Button" style="labelPosition=center;verticalLabelPosition=middle;align=center;html=1;shape=mxgraph.basic.shaded_button;dx=10;fillColor=#E6E6E6;strokeColor=none;" parent="1" vertex="1">
          <mxGeometry x="-1091" y="2629" width="100" height="60" as="geometry" />
        </mxCell>
        <mxCell id="YgYwu3XMY0mxEqjxL5U3-451" style="edgeStyle=orthogonalEdgeStyle;rounded=0;orthogonalLoop=1;jettySize=auto;html=1;strokeColor=#000000;entryX=0.5;entryY=0;entryDx=0;entryDy=0;" parent="1" source="YgYwu3XMY0mxEqjxL5U3-452" target="YgYwu3XMY0mxEqjxL5U3-449" edge="1">
          <mxGeometry relative="1" as="geometry">
            <mxPoint x="-476" y="3139" as="targetPoint" />
          </mxGeometry>
        </mxCell>
        <mxCell id="YgYwu3XMY0mxEqjxL5U3-452" value="" style="shape=mxgraph.bpmn.shape;html=1;verticalLabelPosition=bottom;labelBackgroundColor=#ffffff;verticalAlign=top;align=center;perimeter=ellipsePerimeter;outlineConnect=0;outline=boundInt;symbol=error;" parent="1" vertex="1">
          <mxGeometry x="-556" y="3109" width="50" height="50" as="geometry" />
        </mxCell>
        <mxCell id="YgYwu3XMY0mxEqjxL5U3-453" value="" style="shape=parallelogram;perimeter=parallelogramPerimeter;whiteSpace=wrap;html=1;fixedSize=1;" parent="1" vertex="1">
          <mxGeometry x="-759" y="2859" width="120" height="110" as="geometry" />
        </mxCell>
        <mxCell id="YgYwu3XMY0mxEqjxL5U3-454" value="" style="edgeStyle=orthogonalEdgeStyle;rounded=0;orthogonalLoop=1;jettySize=auto;html=1;strokeColor=#000000;" parent="1" source="YgYwu3XMY0mxEqjxL5U3-455" target="YgYwu3XMY0mxEqjxL5U3-461" edge="1">
          <mxGeometry relative="1" as="geometry" />
        </mxCell>
        <mxCell id="YgYwu3XMY0mxEqjxL5U3-455" value="" style="whiteSpace=wrap;html=1;shape=mxgraph.basic.isocube;isoAngle=15;" parent="1" vertex="1">
          <mxGeometry x="-1156" y="2749" width="100" height="100" as="geometry" />
        </mxCell>
        <mxCell id="YgYwu3XMY0mxEqjxL5U3-456" style="edgeStyle=orthogonalEdgeStyle;rounded=0;orthogonalLoop=1;jettySize=auto;html=1;entryX=0;entryY=0;entryDx=73.5;entryDy=0;entryPerimeter=0;" parent="1" source="YgYwu3XMY0mxEqjxL5U3-457" target="YgYwu3XMY0mxEqjxL5U3-462" edge="1">
          <mxGeometry relative="1" as="geometry" />
        </mxCell>
        <mxCell id="YgYwu3XMY0mxEqjxL5U3-457" value="" style="whiteSpace=wrap;html=1;shape=mxgraph.basic.isocube;isoAngle=15;" parent="1" vertex="1">
          <mxGeometry x="-1306" y="2579" width="100" height="100" as="geometry" />
        </mxCell>
        <mxCell id="YgYwu3XMY0mxEqjxL5U3-458" style="edgeStyle=orthogonalEdgeStyle;rounded=0;orthogonalLoop=1;jettySize=auto;html=1;strokeColor=#000000;" parent="1" source="YgYwu3XMY0mxEqjxL5U3-459" edge="1">
          <mxGeometry relative="1" as="geometry">
            <mxPoint x="-946" y="3259" as="targetPoint" />
          </mxGeometry>
        </mxCell>
        <mxCell id="YgYwu3XMY0mxEqjxL5U3-459" value="" style="shape=mxgraph.bpmn.script_task;html=1;outlineConnect=0;" parent="1" vertex="1">
          <mxGeometry x="-1006" y="3179" width="10" height="14" as="geometry" />
        </mxCell>
        <mxCell id="YgYwu3XMY0mxEqjxL5U3-460" value="" style="html=1;shadow=0;dashed=0;align=center;verticalAlign=middle;shape=mxgraph.arrows2.quadArrow;dy=10;dx=20;notch=24;arrowHead=10;" parent="1" vertex="1">
          <mxGeometry x="-1346" y="3159" width="100" height="100" as="geometry" />
        </mxCell>
        <mxCell id="YgYwu3XMY0mxEqjxL5U3-461" value="" style="ellipse;shape=cloud;whiteSpace=wrap;html=1;" parent="1" vertex="1">
          <mxGeometry x="-929" y="2759" width="120" height="80" as="geometry" />
        </mxCell>
        <mxCell id="YgYwu3XMY0mxEqjxL5U3-462" value="" style="verticalLabelPosition=bottom;verticalAlign=top;html=1;shape=mxgraph.basic.pyramid;dx1=0.49;dx2=0;dy1=0.08;dy2=1;rotation=-60;" parent="1" vertex="1">
          <mxGeometry x="-466" y="2579" width="150" height="200" as="geometry" />
        </mxCell>
        <mxCell id="YgYwu3XMY0mxEqjxL5U3-463" style="edgeStyle=orthogonalEdgeStyle;rounded=0;orthogonalLoop=1;jettySize=auto;html=1;entryX=0.5;entryY=1;entryDx=0;entryDy=0;entryPerimeter=0;" parent="1" source="YgYwu3XMY0mxEqjxL5U3-464" target="YgYwu3XMY0mxEqjxL5U3-457" edge="1">
          <mxGeometry relative="1" as="geometry" />
        </mxCell>
        <mxCell id="YgYwu3XMY0mxEqjxL5U3-464" value="" style="verticalLabelPosition=bottom;verticalAlign=top;html=1;shape=mxgraph.basic.cone2;dx=0.5;dy=0.68;" parent="1" vertex="1">
          <mxGeometry x="-1306" y="2929" width="100" height="100" as="geometry" />
        </mxCell>
        <mxCell id="YgYwu3XMY0mxEqjxL5U3-465" value="" style="edgeStyle=orthogonalEdgeStyle;rounded=0;orthogonalLoop=1;jettySize=auto;html=1;endArrow=none;endFill=0;" parent="1" source="YgYwu3XMY0mxEqjxL5U3-466" target="YgYwu3XMY0mxEqjxL5U3-467" edge="1">
          <mxGeometry relative="1" as="geometry" />
        </mxCell>
        <mxCell id="YgYwu3XMY0mxEqjxL5U3-466" value="Kafka" style="whiteSpace=wrap;html=1;aspect=fixed;" parent="1" vertex="1">
          <mxGeometry x="508" y="3428" width="50" height="50" as="geometry" />
        </mxCell>
        <mxCell id="YgYwu3XMY0mxEqjxL5U3-467" value="Kafka" style="whiteSpace=wrap;html=1;aspect=fixed;" parent="1" vertex="1">
          <mxGeometry x="508" y="4014" width="50" height="50" as="geometry" />
        </mxCell>
        <mxCell id="YgYwu3XMY0mxEqjxL5U3-468" value="" style="edgeStyle=orthogonalEdgeStyle;rounded=0;orthogonalLoop=1;jettySize=auto;html=1;endArrow=none;endFill=0;" parent="1" source="YgYwu3XMY0mxEqjxL5U3-469" target="YgYwu3XMY0mxEqjxL5U3-470" edge="1">
          <mxGeometry relative="1" as="geometry" />
        </mxCell>
        <mxCell id="YgYwu3XMY0mxEqjxL5U3-469" value="filebeat" style="whiteSpace=wrap;html=1;aspect=fixed;" parent="1" vertex="1">
          <mxGeometry x="684" y="3428" width="50" height="50" as="geometry" />
        </mxCell>
        <mxCell id="YgYwu3XMY0mxEqjxL5U3-470" value="filebeat" style="whiteSpace=wrap;html=1;aspect=fixed;" parent="1" vertex="1">
          <mxGeometry x="684" y="4014" width="50" height="50" as="geometry" />
        </mxCell>
        <mxCell id="YgYwu3XMY0mxEqjxL5U3-471" value="" style="edgeStyle=orthogonalEdgeStyle;rounded=0;orthogonalLoop=1;jettySize=auto;html=1;endArrow=none;endFill=0;" parent="1" edge="1">
          <mxGeometry relative="1" as="geometry">
            <mxPoint x="434" y="3478" as="sourcePoint" />
            <mxPoint x="434" y="4038" as="targetPoint" />
          </mxGeometry>
        </mxCell>
        <mxCell id="YgYwu3XMY0mxEqjxL5U3-472" value="Logstash" style="whiteSpace=wrap;html=1;aspect=fixed;" parent="1" vertex="1">
          <mxGeometry x="408" y="3428" width="50" height="50" as="geometry" />
        </mxCell>
        <mxCell id="YgYwu3XMY0mxEqjxL5U3-473" value="Logstash" style="whiteSpace=wrap;html=1;aspect=fixed;" parent="1" vertex="1">
          <mxGeometry x="408" y="4014" width="50" height="50" as="geometry" />
        </mxCell>
        <mxCell id="YgYwu3XMY0mxEqjxL5U3-474" value="" style="edgeStyle=orthogonalEdgeStyle;rounded=0;orthogonalLoop=1;jettySize=auto;html=1;endArrow=none;endFill=0;" parent="1" source="YgYwu3XMY0mxEqjxL5U3-475" target="YgYwu3XMY0mxEqjxL5U3-476" edge="1">
          <mxGeometry relative="1" as="geometry" />
        </mxCell>
        <mxCell id="YgYwu3XMY0mxEqjxL5U3-475" value="Elastic" style="whiteSpace=wrap;html=1;aspect=fixed;" parent="1" vertex="1">
          <mxGeometry x="308" y="3428" width="50" height="50" as="geometry" />
        </mxCell>
        <mxCell id="YgYwu3XMY0mxEqjxL5U3-476" value="Elastic" style="whiteSpace=wrap;html=1;aspect=fixed;" parent="1" vertex="1">
          <mxGeometry x="308" y="4014" width="50" height="50" as="geometry" />
        </mxCell>
        <mxCell id="YgYwu3XMY0mxEqjxL5U3-477" value="" style="edgeStyle=orthogonalEdgeStyle;rounded=0;orthogonalLoop=1;jettySize=auto;html=1;endArrow=none;endFill=0;" parent="1" source="YgYwu3XMY0mxEqjxL5U3-478" target="YgYwu3XMY0mxEqjxL5U3-479" edge="1">
          <mxGeometry relative="1" as="geometry" />
        </mxCell>
        <mxCell id="YgYwu3XMY0mxEqjxL5U3-478" value="Conf&lt;br&gt;Manager" style="whiteSpace=wrap;html=1;aspect=fixed;" parent="1" vertex="1">
          <mxGeometry x="26" y="3428" width="50" height="50" as="geometry" />
        </mxCell>
        <mxCell id="YgYwu3XMY0mxEqjxL5U3-479" value="Conf&lt;br&gt;Manager" style="whiteSpace=wrap;html=1;aspect=fixed;" parent="1" vertex="1">
          <mxGeometry x="26" y="4014" width="50" height="50" as="geometry" />
        </mxCell>
        <mxCell id="YgYwu3XMY0mxEqjxL5U3-480" value="" style="endArrow=classic;html=1;strokeColor=#000000;" parent="1" edge="1">
          <mxGeometry width="50" height="50" relative="1" as="geometry">
            <mxPoint x="56" y="3569" as="sourcePoint" />
            <mxPoint x="431" y="3569" as="targetPoint" />
          </mxGeometry>
        </mxCell>
        <mxCell id="YgYwu3XMY0mxEqjxL5U3-481" value="Configure pipeline" style="text;html=1;align=center;verticalAlign=middle;resizable=0;points=[];labelBackgroundColor=#ffffff;" parent="YgYwu3XMY0mxEqjxL5U3-480" vertex="1" connectable="0">
          <mxGeometry x="0.2341" y="1" relative="1" as="geometry">
            <mxPoint x="-146" as="offset" />
          </mxGeometry>
        </mxCell>
        <mxCell id="YgYwu3XMY0mxEqjxL5U3-482" value="" style="endArrow=classic;html=1;fontColor=#B0B0B0;" parent="1" edge="1">
          <mxGeometry width="50" height="50" relative="1" as="geometry">
            <mxPoint x="56" y="3526" as="sourcePoint" />
            <mxPoint x="701" y="3526" as="targetPoint" />
          </mxGeometry>
        </mxCell>
        <mxCell id="YgYwu3XMY0mxEqjxL5U3-483" value="&lt;font color=&quot;#000000&quot;&gt;Create topic list errorlevel&lt;/font&gt;" style="text;html=1;align=center;verticalAlign=middle;resizable=0;points=[];labelBackgroundColor=#ffffff;fontColor=#B0B0B0;" parent="YgYwu3XMY0mxEqjxL5U3-482" vertex="1" connectable="0">
          <mxGeometry x="0.1943" y="1" relative="1" as="geometry">
            <mxPoint x="-300" as="offset" />
          </mxGeometry>
        </mxCell>
        <mxCell id="YgYwu3XMY0mxEqjxL5U3-484" value="" style="edgeStyle=orthogonalEdgeStyle;rounded=0;orthogonalLoop=1;jettySize=auto;html=1;endArrow=none;endFill=0;" parent="1" source="YgYwu3XMY0mxEqjxL5U3-485" target="YgYwu3XMY0mxEqjxL5U3-486" edge="1">
          <mxGeometry relative="1" as="geometry" />
        </mxCell>
        <mxCell id="YgYwu3XMY0mxEqjxL5U3-485" value="Resource" style="whiteSpace=wrap;html=1;aspect=fixed;" parent="1" vertex="1">
          <mxGeometry x="866" y="3428" width="50" height="50" as="geometry" />
        </mxCell>
        <mxCell id="YgYwu3XMY0mxEqjxL5U3-486" value="Resource" style="whiteSpace=wrap;html=1;aspect=fixed;" parent="1" vertex="1">
          <mxGeometry x="866" y="4014" width="50" height="50" as="geometry" />
        </mxCell>
        <mxCell id="YgYwu3XMY0mxEqjxL5U3-487" value="" style="endArrow=none;html=1;strokeColor=#000000;endFill=0;startFill=1;startArrow=classic;" parent="1" edge="1">
          <mxGeometry width="50" height="50" relative="1" as="geometry">
            <mxPoint x="714" y="3607" as="sourcePoint" />
            <mxPoint x="884" y="3607" as="targetPoint" />
            <Array as="points">
              <mxPoint x="774" y="3607" />
            </Array>
          </mxGeometry>
        </mxCell>
        <mxCell id="YgYwu3XMY0mxEqjxL5U3-488" value="Log event" style="text;html=1;align=center;verticalAlign=middle;resizable=0;points=[];labelBackgroundColor=#ffffff;" parent="YgYwu3XMY0mxEqjxL5U3-487" vertex="1" connectable="0">
          <mxGeometry x="0.1943" y="1" relative="1" as="geometry">
            <mxPoint x="-12.86" as="offset" />
          </mxGeometry>
        </mxCell>
        <mxCell id="YgYwu3XMY0mxEqjxL5U3-489" value="" style="endArrow=none;html=1;strokeColor=#000000;endFill=0;startArrow=classic;startFill=1;" parent="1" edge="1">
          <mxGeometry width="50" height="50" relative="1" as="geometry">
            <mxPoint x="540" y="3649" as="sourcePoint" />
            <mxPoint x="701" y="3649" as="targetPoint" />
          </mxGeometry>
        </mxCell>
        <mxCell id="YgYwu3XMY0mxEqjxL5U3-490" value="Push event" style="text;html=1;align=center;verticalAlign=middle;resizable=0;points=[];labelBackgroundColor=#ffffff;" parent="YgYwu3XMY0mxEqjxL5U3-489" vertex="1" connectable="0">
          <mxGeometry x="0.1943" y="1" relative="1" as="geometry">
            <mxPoint x="4" as="offset" />
          </mxGeometry>
        </mxCell>
        <mxCell id="YgYwu3XMY0mxEqjxL5U3-491" value="" style="endArrow=none;html=1;strokeColor=#000000;endFill=0;startArrow=classic;startFill=1;" parent="1" edge="1">
          <mxGeometry width="50" height="50" relative="1" as="geometry">
            <mxPoint x="438" y="3687" as="sourcePoint" />
            <mxPoint x="528" y="3687" as="targetPoint" />
            <Array as="points">
              <mxPoint x="488" y="3687" />
              <mxPoint x="508" y="3687" />
            </Array>
          </mxGeometry>
        </mxCell>
        <mxCell id="YgYwu3XMY0mxEqjxL5U3-492" value="Push event" style="text;html=1;align=center;verticalAlign=middle;resizable=0;points=[];labelBackgroundColor=#ffffff;" parent="YgYwu3XMY0mxEqjxL5U3-491" vertex="1" connectable="0">
          <mxGeometry x="0.1943" y="1" relative="1" as="geometry">
            <mxPoint x="-12.86" as="offset" />
          </mxGeometry>
        </mxCell>
        <mxCell id="YgYwu3XMY0mxEqjxL5U3-493" value="" style="endArrow=none;html=1;strokeColor=#000000;endFill=0;startArrow=classic;startFill=1;" parent="1" edge="1">
          <mxGeometry width="50" height="50" relative="1" as="geometry">
            <mxPoint x="338" y="3737" as="sourcePoint" />
            <mxPoint x="428" y="3737" as="targetPoint" />
          </mxGeometry>
        </mxCell>
        <mxCell id="YgYwu3XMY0mxEqjxL5U3-494" value="Index event" style="text;html=1;align=center;verticalAlign=middle;resizable=0;points=[];labelBackgroundColor=#ffffff;" parent="YgYwu3XMY0mxEqjxL5U3-493" vertex="1" connectable="0">
          <mxGeometry x="0.1943" y="1" relative="1" as="geometry">
            <mxPoint x="-2.8599999999999994" y="-6" as="offset" />
          </mxGeometry>
        </mxCell>
        <mxCell id="YgYwu3XMY0mxEqjxL5U3-495" value="" style="endArrow=none;html=1;strokeColor=#000000;endFill=0;startFill=1;startArrow=classic;" parent="1" edge="1">
          <mxGeometry width="50" height="50" relative="1" as="geometry">
            <mxPoint x="-99" y="3884" as="sourcePoint" />
            <mxPoint x="221" y="3884" as="targetPoint" />
          </mxGeometry>
        </mxCell>
        <mxCell id="YgYwu3XMY0mxEqjxL5U3-496" value="alert" style="text;html=1;align=center;verticalAlign=middle;resizable=0;points=[];labelBackgroundColor=#ffffff;" parent="YgYwu3XMY0mxEqjxL5U3-495" vertex="1" connectable="0">
          <mxGeometry x="0.1943" y="1" relative="1" as="geometry">
            <mxPoint x="49" y="1" as="offset" />
          </mxGeometry>
        </mxCell>
        <mxCell id="YgYwu3XMY0mxEqjxL5U3-497" value="" style="edgeStyle=orthogonalEdgeStyle;rounded=0;orthogonalLoop=1;jettySize=auto;html=1;endArrow=none;endFill=0;" parent="1" source="YgYwu3XMY0mxEqjxL5U3-498" target="YgYwu3XMY0mxEqjxL5U3-499" edge="1">
          <mxGeometry relative="1" as="geometry" />
        </mxCell>
        <mxCell id="YgYwu3XMY0mxEqjxL5U3-498" value="Alert&lt;br&gt;Manager" style="whiteSpace=wrap;html=1;aspect=fixed;" parent="1" vertex="1">
          <mxGeometry x="-129" y="3428" width="50" height="50" as="geometry" />
        </mxCell>
        <mxCell id="YgYwu3XMY0mxEqjxL5U3-499" value="Alert&lt;br&gt;Manager" style="whiteSpace=wrap;html=1;aspect=fixed;" parent="1" vertex="1">
          <mxGeometry x="-129" y="4014" width="50" height="50" as="geometry" />
        </mxCell>
        <mxCell id="YgYwu3XMY0mxEqjxL5U3-500" value="" style="edgeStyle=orthogonalEdgeStyle;rounded=0;orthogonalLoop=1;jettySize=auto;html=1;endArrow=none;endFill=0;" parent="1" source="YgYwu3XMY0mxEqjxL5U3-501" target="YgYwu3XMY0mxEqjxL5U3-502" edge="1">
          <mxGeometry relative="1" as="geometry" />
        </mxCell>
        <mxCell id="YgYwu3XMY0mxEqjxL5U3-501" value="Elast Alert" style="whiteSpace=wrap;html=1;aspect=fixed;" parent="1" vertex="1">
          <mxGeometry x="201" y="3428" width="50" height="50" as="geometry" />
        </mxCell>
        <mxCell id="YgYwu3XMY0mxEqjxL5U3-502" value="Elast Alert" style="whiteSpace=wrap;html=1;aspect=fixed;" parent="1" vertex="1">
          <mxGeometry x="201" y="4014" width="50" height="50" as="geometry" />
        </mxCell>
        <mxCell id="YgYwu3XMY0mxEqjxL5U3-503" value="" style="endArrow=classic;html=1;strokeColor=#000000;" parent="1" edge="1">
          <mxGeometry width="50" height="50" relative="1" as="geometry">
            <mxPoint x="-99" y="3739" as="sourcePoint" />
            <mxPoint x="221" y="3739" as="targetPoint" />
          </mxGeometry>
        </mxCell>
        <mxCell id="YgYwu3XMY0mxEqjxL5U3-504" value="Configure alert rule" style="text;html=1;align=center;verticalAlign=middle;resizable=0;points=[];labelBackgroundColor=#ffffff;" parent="YgYwu3XMY0mxEqjxL5U3-503" vertex="1" connectable="0">
          <mxGeometry x="0.2341" y="1" relative="1" as="geometry">
            <mxPoint x="-126" as="offset" />
          </mxGeometry>
        </mxCell>
        <mxCell id="YgYwu3XMY0mxEqjxL5U3-505" value="" style="endArrow=none;html=1;strokeColor=#000000;endFill=0;startArrow=classic;startFill=1;" parent="1" edge="1">
          <mxGeometry width="50" height="50" relative="1" as="geometry">
            <mxPoint x="331" y="3871" as="sourcePoint" />
            <mxPoint x="231" y="3871" as="targetPoint" />
            <Array as="points" />
          </mxGeometry>
        </mxCell>
        <mxCell id="YgYwu3XMY0mxEqjxL5U3-506" value="check&amp;nbsp; index" style="edgeLabel;html=1;align=center;verticalAlign=middle;resizable=0;points=[];" parent="YgYwu3XMY0mxEqjxL5U3-505" vertex="1" connectable="0">
          <mxGeometry x="0.24" relative="1" as="geometry">
            <mxPoint as="offset" />
          </mxGeometry>
        </mxCell>
        <mxCell id="YgYwu3XMY0mxEqjxL5U3-507" value="" style="edgeStyle=orthogonalEdgeStyle;rounded=0;orthogonalLoop=1;jettySize=auto;html=1;strokeColor=#000000;" parent="1" source="YgYwu3XMY0mxEqjxL5U3-509" target="YgYwu3XMY0mxEqjxL5U3-518" edge="1">
          <mxGeometry relative="1" as="geometry" />
        </mxCell>
        <mxCell id="YgYwu3XMY0mxEqjxL5U3-508" value="" style="edgeStyle=orthogonalEdgeStyle;rounded=0;orthogonalLoop=1;jettySize=auto;html=1;strokeColor=#000000;" parent="1" source="YgYwu3XMY0mxEqjxL5U3-509" target="YgYwu3XMY0mxEqjxL5U3-519" edge="1">
          <mxGeometry relative="1" as="geometry" />
        </mxCell>
        <mxCell id="YgYwu3XMY0mxEqjxL5U3-509" value="" style="ellipse;whiteSpace=wrap;html=1;" parent="1" vertex="1">
          <mxGeometry x="261" y="2998" width="78" height="60" as="geometry" />
        </mxCell>
        <mxCell id="YgYwu3XMY0mxEqjxL5U3-510" value="" style="edgeStyle=orthogonalEdgeStyle;rounded=0;orthogonalLoop=1;jettySize=auto;html=1;" parent="1" source="YgYwu3XMY0mxEqjxL5U3-511" target="YgYwu3XMY0mxEqjxL5U3-509" edge="1">
          <mxGeometry relative="1" as="geometry" />
        </mxCell>
        <mxCell id="YgYwu3XMY0mxEqjxL5U3-511" value="" style="html=1;shadow=0;dashed=0;align=center;verticalAlign=middle;shape=mxgraph.arrows2.jumpInArrow;dy=15;dx=38;arrowHead=55;" parent="1" vertex="1">
          <mxGeometry x="26" y="3048" width="100" height="100" as="geometry" />
        </mxCell>
        <mxCell id="YgYwu3XMY0mxEqjxL5U3-512" value="" style="edgeStyle=orthogonalEdgeStyle;rounded=0;orthogonalLoop=1;jettySize=auto;html=1;" parent="1" source="YgYwu3XMY0mxEqjxL5U3-513" target="YgYwu3XMY0mxEqjxL5U3-511" edge="1">
          <mxGeometry relative="1" as="geometry" />
        </mxCell>
        <mxCell id="YgYwu3XMY0mxEqjxL5U3-513" value="" style="shape=image;html=1;verticalLabelPosition=bottom;verticalAlign=top;imageAspect=0;image=img/clipart/Gear_128x128.png" parent="1" vertex="1">
          <mxGeometry x="1041" y="3268" width="50" height="60" as="geometry" />
        </mxCell>
        <mxCell id="YgYwu3XMY0mxEqjxL5U3-514" value="" style="edgeStyle=orthogonalEdgeStyle;rounded=0;orthogonalLoop=1;jettySize=auto;html=1;" parent="1" source="YgYwu3XMY0mxEqjxL5U3-515" target="YgYwu3XMY0mxEqjxL5U3-513" edge="1">
          <mxGeometry relative="1" as="geometry" />
        </mxCell>
        <mxCell id="YgYwu3XMY0mxEqjxL5U3-515" value="" style="rhombus;whiteSpace=wrap;html=1;strokeWidth=2;fillWeight=-1;hachureGap=8;fillStyle=cross-hatch;fillColor=#006600;sketch=1;" parent="1" vertex="1">
          <mxGeometry x="734" y="3188" width="120" height="60" as="geometry" />
        </mxCell>
        <mxCell id="YgYwu3XMY0mxEqjxL5U3-516" value="Button" style="labelPosition=center;verticalLabelPosition=middle;align=center;html=1;shape=mxgraph.basic.shaded_button;dx=10;fillColor=#E6E6E6;strokeColor=none;" parent="1" vertex="1">
          <mxGeometry x="126" y="2598" width="100" height="60" as="geometry" />
        </mxCell>
        <mxCell id="YgYwu3XMY0mxEqjxL5U3-517" style="edgeStyle=orthogonalEdgeStyle;rounded=0;orthogonalLoop=1;jettySize=auto;html=1;strokeColor=#000000;entryX=0.5;entryY=0;entryDx=0;entryDy=0;" parent="1" source="YgYwu3XMY0mxEqjxL5U3-518" target="YgYwu3XMY0mxEqjxL5U3-515" edge="1">
          <mxGeometry relative="1" as="geometry">
            <mxPoint x="741" y="3108" as="targetPoint" />
          </mxGeometry>
        </mxCell>
        <mxCell id="YgYwu3XMY0mxEqjxL5U3-518" value="" style="shape=mxgraph.bpmn.shape;html=1;verticalLabelPosition=bottom;labelBackgroundColor=#ffffff;verticalAlign=top;align=center;perimeter=ellipsePerimeter;outlineConnect=0;outline=boundInt;symbol=error;" parent="1" vertex="1">
          <mxGeometry x="661" y="3078" width="50" height="50" as="geometry" />
        </mxCell>
        <mxCell id="YgYwu3XMY0mxEqjxL5U3-519" value="" style="shape=parallelogram;perimeter=parallelogramPerimeter;whiteSpace=wrap;html=1;fixedSize=1;" parent="1" vertex="1">
          <mxGeometry x="458" y="2828" width="120" height="110" as="geometry" />
        </mxCell>
        <mxCell id="YgYwu3XMY0mxEqjxL5U3-520" value="" style="edgeStyle=orthogonalEdgeStyle;rounded=0;orthogonalLoop=1;jettySize=auto;html=1;strokeColor=#000000;" parent="1" source="YgYwu3XMY0mxEqjxL5U3-521" target="YgYwu3XMY0mxEqjxL5U3-527" edge="1">
          <mxGeometry relative="1" as="geometry" />
        </mxCell>
        <mxCell id="YgYwu3XMY0mxEqjxL5U3-521" value="" style="whiteSpace=wrap;html=1;shape=mxgraph.basic.isocube;isoAngle=15;" parent="1" vertex="1">
          <mxGeometry x="61" y="2718" width="100" height="100" as="geometry" />
        </mxCell>
        <mxCell id="YgYwu3XMY0mxEqjxL5U3-522" style="edgeStyle=orthogonalEdgeStyle;rounded=0;orthogonalLoop=1;jettySize=auto;html=1;entryX=0;entryY=0;entryDx=73.5;entryDy=0;entryPerimeter=0;" parent="1" source="YgYwu3XMY0mxEqjxL5U3-523" target="YgYwu3XMY0mxEqjxL5U3-528" edge="1">
          <mxGeometry relative="1" as="geometry" />
        </mxCell>
        <mxCell id="YgYwu3XMY0mxEqjxL5U3-523" value="" style="whiteSpace=wrap;html=1;shape=mxgraph.basic.isocube;isoAngle=15;" parent="1" vertex="1">
          <mxGeometry x="-89" y="2548" width="100" height="100" as="geometry" />
        </mxCell>
        <mxCell id="YgYwu3XMY0mxEqjxL5U3-524" style="edgeStyle=orthogonalEdgeStyle;rounded=0;orthogonalLoop=1;jettySize=auto;html=1;strokeColor=#000000;" parent="1" source="YgYwu3XMY0mxEqjxL5U3-525" edge="1">
          <mxGeometry relative="1" as="geometry">
            <mxPoint x="271" y="3228" as="targetPoint" />
          </mxGeometry>
        </mxCell>
        <mxCell id="YgYwu3XMY0mxEqjxL5U3-525" value="" style="shape=mxgraph.bpmn.script_task;html=1;outlineConnect=0;" parent="1" vertex="1">
          <mxGeometry x="211" y="3148" width="10" height="14" as="geometry" />
        </mxCell>
        <mxCell id="YgYwu3XMY0mxEqjxL5U3-526" value="" style="html=1;shadow=0;dashed=0;align=center;verticalAlign=middle;shape=mxgraph.arrows2.quadArrow;dy=10;dx=20;notch=24;arrowHead=10;" parent="1" vertex="1">
          <mxGeometry x="-129" y="3128" width="100" height="100" as="geometry" />
        </mxCell>
        <mxCell id="YgYwu3XMY0mxEqjxL5U3-527" value="" style="ellipse;shape=cloud;whiteSpace=wrap;html=1;" parent="1" vertex="1">
          <mxGeometry x="288" y="2728" width="120" height="80" as="geometry" />
        </mxCell>
        <mxCell id="YgYwu3XMY0mxEqjxL5U3-528" value="" style="verticalLabelPosition=bottom;verticalAlign=top;html=1;shape=mxgraph.basic.pyramid;dx1=0.49;dx2=0;dy1=0.08;dy2=1;rotation=-60;" parent="1" vertex="1">
          <mxGeometry x="751" y="2548" width="150" height="200" as="geometry" />
        </mxCell>
        <mxCell id="YgYwu3XMY0mxEqjxL5U3-529" style="edgeStyle=orthogonalEdgeStyle;rounded=0;orthogonalLoop=1;jettySize=auto;html=1;entryX=0.5;entryY=1;entryDx=0;entryDy=0;entryPerimeter=0;" parent="1" source="YgYwu3XMY0mxEqjxL5U3-530" target="YgYwu3XMY0mxEqjxL5U3-523" edge="1">
          <mxGeometry relative="1" as="geometry" />
        </mxCell>
        <mxCell id="YgYwu3XMY0mxEqjxL5U3-530" value="" style="verticalLabelPosition=bottom;verticalAlign=top;html=1;shape=mxgraph.basic.cone2;dx=0.5;dy=0.68;" parent="1" vertex="1">
          <mxGeometry x="-89" y="2898" width="100" height="100" as="geometry" />
        </mxCell>
      </root>
    </mxGraphModel>
  </diagram>
  <diagram id="5YBwBe8P7Qu8stZMI8Gt" name="Page-2">
    <mxGraphModel dx="2990" dy="2505" grid="1" gridSize="10" guides="1" tooltips="1" connect="1" arrows="1" fold="1" page="1" pageScale="1" pageWidth="1169" pageHeight="827" math="0" shadow="0">
      <root>
        <mxCell id="POTDINpsIV9OcuhE6Ynd-0" />
        <mxCell id="POTDINpsIV9OcuhE6Ynd-1" parent="POTDINpsIV9OcuhE6Ynd-0" />
        <mxCell id="POTDINpsIV9OcuhE6Ynd-200" value="" style="edgeStyle=orthogonalEdgeStyle;rounded=0;orthogonalLoop=1;jettySize=auto;html=1;endArrow=none;endFill=0;" edge="1" parent="POTDINpsIV9OcuhE6Ynd-1" source="POTDINpsIV9OcuhE6Ynd-201" target="POTDINpsIV9OcuhE6Ynd-202">
          <mxGeometry relative="1" as="geometry" />
        </mxCell>
        <mxCell id="POTDINpsIV9OcuhE6Ynd-201" value="Kafka" style="whiteSpace=wrap;html=1;aspect=fixed;" vertex="1" parent="POTDINpsIV9OcuhE6Ynd-1">
          <mxGeometry x="-1643" y="-1610" width="50" height="50" as="geometry" />
        </mxCell>
        <mxCell id="POTDINpsIV9OcuhE6Ynd-202" value="Kafka" style="whiteSpace=wrap;html=1;aspect=fixed;" vertex="1" parent="POTDINpsIV9OcuhE6Ynd-1">
          <mxGeometry x="-1643" y="-1024" width="50" height="50" as="geometry" />
        </mxCell>
        <mxCell id="POTDINpsIV9OcuhE6Ynd-203" value="" style="edgeStyle=orthogonalEdgeStyle;rounded=0;orthogonalLoop=1;jettySize=auto;html=1;endArrow=none;endFill=0;" edge="1" parent="POTDINpsIV9OcuhE6Ynd-1" source="POTDINpsIV9OcuhE6Ynd-204" target="POTDINpsIV9OcuhE6Ynd-205">
          <mxGeometry relative="1" as="geometry" />
        </mxCell>
        <mxCell id="POTDINpsIV9OcuhE6Ynd-204" value="filebeat" style="whiteSpace=wrap;html=1;aspect=fixed;" vertex="1" parent="POTDINpsIV9OcuhE6Ynd-1">
          <mxGeometry x="-1467" y="-1610" width="50" height="50" as="geometry" />
        </mxCell>
        <mxCell id="POTDINpsIV9OcuhE6Ynd-205" value="filebeat" style="whiteSpace=wrap;html=1;aspect=fixed;" vertex="1" parent="POTDINpsIV9OcuhE6Ynd-1">
          <mxGeometry x="-1467" y="-1024" width="50" height="50" as="geometry" />
        </mxCell>
        <mxCell id="POTDINpsIV9OcuhE6Ynd-206" value="" style="edgeStyle=orthogonalEdgeStyle;rounded=0;orthogonalLoop=1;jettySize=auto;html=1;endArrow=none;endFill=0;" edge="1" parent="POTDINpsIV9OcuhE6Ynd-1">
          <mxGeometry relative="1" as="geometry">
            <mxPoint x="-1717" y="-1560" as="sourcePoint" />
            <mxPoint x="-1717" y="-1000" as="targetPoint" />
          </mxGeometry>
        </mxCell>
        <mxCell id="POTDINpsIV9OcuhE6Ynd-207" value="Logstash" style="whiteSpace=wrap;html=1;aspect=fixed;" vertex="1" parent="POTDINpsIV9OcuhE6Ynd-1">
          <mxGeometry x="-1743" y="-1610" width="50" height="50" as="geometry" />
        </mxCell>
        <mxCell id="POTDINpsIV9OcuhE6Ynd-208" value="Logstash" style="whiteSpace=wrap;html=1;aspect=fixed;" vertex="1" parent="POTDINpsIV9OcuhE6Ynd-1">
          <mxGeometry x="-1743" y="-1024" width="50" height="50" as="geometry" />
        </mxCell>
        <mxCell id="POTDINpsIV9OcuhE6Ynd-209" value="" style="edgeStyle=orthogonalEdgeStyle;rounded=0;orthogonalLoop=1;jettySize=auto;html=1;endArrow=none;endFill=0;" edge="1" parent="POTDINpsIV9OcuhE6Ynd-1" source="POTDINpsIV9OcuhE6Ynd-210" target="POTDINpsIV9OcuhE6Ynd-211">
          <mxGeometry relative="1" as="geometry" />
        </mxCell>
        <mxCell id="POTDINpsIV9OcuhE6Ynd-210" value="Elastic" style="whiteSpace=wrap;html=1;aspect=fixed;" vertex="1" parent="POTDINpsIV9OcuhE6Ynd-1">
          <mxGeometry x="-1843" y="-1610" width="50" height="50" as="geometry" />
        </mxCell>
        <mxCell id="POTDINpsIV9OcuhE6Ynd-211" value="Elastic" style="whiteSpace=wrap;html=1;aspect=fixed;" vertex="1" parent="POTDINpsIV9OcuhE6Ynd-1">
          <mxGeometry x="-1843" y="-1024" width="50" height="50" as="geometry" />
        </mxCell>
        <mxCell id="POTDINpsIV9OcuhE6Ynd-212" value="" style="edgeStyle=orthogonalEdgeStyle;rounded=0;orthogonalLoop=1;jettySize=auto;html=1;endArrow=none;endFill=0;" edge="1" parent="POTDINpsIV9OcuhE6Ynd-1" source="POTDINpsIV9OcuhE6Ynd-213" target="POTDINpsIV9OcuhE6Ynd-214">
          <mxGeometry relative="1" as="geometry" />
        </mxCell>
        <mxCell id="POTDINpsIV9OcuhE6Ynd-213" value="Conf&lt;br&gt;Manager" style="whiteSpace=wrap;html=1;aspect=fixed;" vertex="1" parent="POTDINpsIV9OcuhE6Ynd-1">
          <mxGeometry x="-2125" y="-1610" width="50" height="50" as="geometry" />
        </mxCell>
        <mxCell id="POTDINpsIV9OcuhE6Ynd-214" value="Conf&lt;br&gt;Manager" style="whiteSpace=wrap;html=1;aspect=fixed;" vertex="1" parent="POTDINpsIV9OcuhE6Ynd-1">
          <mxGeometry x="-2125" y="-1024" width="50" height="50" as="geometry" />
        </mxCell>
        <mxCell id="POTDINpsIV9OcuhE6Ynd-215" value="" style="endArrow=classic;html=1;strokeColor=#000000;" edge="1" parent="POTDINpsIV9OcuhE6Ynd-1">
          <mxGeometry width="50" height="50" relative="1" as="geometry">
            <mxPoint x="-2095" y="-1469" as="sourcePoint" />
            <mxPoint x="-1720" y="-1469" as="targetPoint" />
          </mxGeometry>
        </mxCell>
        <mxCell id="POTDINpsIV9OcuhE6Ynd-216" value="Configure pipeline" style="text;html=1;align=center;verticalAlign=middle;resizable=0;points=[];labelBackgroundColor=#ffffff;" vertex="1" connectable="0" parent="POTDINpsIV9OcuhE6Ynd-215">
          <mxGeometry x="0.2341" y="1" relative="1" as="geometry">
            <mxPoint x="-146" as="offset" />
          </mxGeometry>
        </mxCell>
        <mxCell id="POTDINpsIV9OcuhE6Ynd-217" value="" style="endArrow=classic;html=1;fontColor=#B0B0B0;" edge="1" parent="POTDINpsIV9OcuhE6Ynd-1">
          <mxGeometry width="50" height="50" relative="1" as="geometry">
            <mxPoint x="-2095" y="-1512" as="sourcePoint" />
            <mxPoint x="-1450" y="-1512" as="targetPoint" />
          </mxGeometry>
        </mxCell>
        <mxCell id="POTDINpsIV9OcuhE6Ynd-218" value="&lt;font color=&quot;#000000&quot;&gt;Create topic list errorlevel&lt;/font&gt;" style="text;html=1;align=center;verticalAlign=middle;resizable=0;points=[];labelBackgroundColor=#ffffff;fontColor=#B0B0B0;" vertex="1" connectable="0" parent="POTDINpsIV9OcuhE6Ynd-217">
          <mxGeometry x="0.1943" y="1" relative="1" as="geometry">
            <mxPoint x="-300" as="offset" />
          </mxGeometry>
        </mxCell>
        <mxCell id="POTDINpsIV9OcuhE6Ynd-219" value="" style="edgeStyle=orthogonalEdgeStyle;rounded=0;orthogonalLoop=1;jettySize=auto;html=1;endArrow=none;endFill=0;" edge="1" parent="POTDINpsIV9OcuhE6Ynd-1" source="POTDINpsIV9OcuhE6Ynd-220" target="POTDINpsIV9OcuhE6Ynd-221">
          <mxGeometry relative="1" as="geometry" />
        </mxCell>
        <mxCell id="POTDINpsIV9OcuhE6Ynd-220" value="Resource" style="whiteSpace=wrap;html=1;aspect=fixed;" vertex="1" parent="POTDINpsIV9OcuhE6Ynd-1">
          <mxGeometry x="-1285" y="-1610" width="50" height="50" as="geometry" />
        </mxCell>
        <mxCell id="POTDINpsIV9OcuhE6Ynd-221" value="Resource" style="whiteSpace=wrap;html=1;aspect=fixed;" vertex="1" parent="POTDINpsIV9OcuhE6Ynd-1">
          <mxGeometry x="-1285" y="-1024" width="50" height="50" as="geometry" />
        </mxCell>
        <mxCell id="POTDINpsIV9OcuhE6Ynd-222" value="" style="endArrow=none;html=1;strokeColor=#000000;endFill=0;startFill=1;startArrow=classic;" edge="1" parent="POTDINpsIV9OcuhE6Ynd-1">
          <mxGeometry width="50" height="50" relative="1" as="geometry">
            <mxPoint x="-1437" y="-1431" as="sourcePoint" />
            <mxPoint x="-1267" y="-1431" as="targetPoint" />
            <Array as="points">
              <mxPoint x="-1377" y="-1431" />
            </Array>
          </mxGeometry>
        </mxCell>
        <mxCell id="POTDINpsIV9OcuhE6Ynd-223" value="Log event" style="text;html=1;align=center;verticalAlign=middle;resizable=0;points=[];labelBackgroundColor=#ffffff;" vertex="1" connectable="0" parent="POTDINpsIV9OcuhE6Ynd-222">
          <mxGeometry x="0.1943" y="1" relative="1" as="geometry">
            <mxPoint x="-12.86" as="offset" />
          </mxGeometry>
        </mxCell>
        <mxCell id="POTDINpsIV9OcuhE6Ynd-224" value="" style="endArrow=none;html=1;strokeColor=#000000;endFill=0;startArrow=classic;startFill=1;" edge="1" parent="POTDINpsIV9OcuhE6Ynd-1">
          <mxGeometry width="50" height="50" relative="1" as="geometry">
            <mxPoint x="-1611" y="-1389" as="sourcePoint" />
            <mxPoint x="-1450" y="-1389" as="targetPoint" />
          </mxGeometry>
        </mxCell>
        <mxCell id="POTDINpsIV9OcuhE6Ynd-225" value="Push event" style="text;html=1;align=center;verticalAlign=middle;resizable=0;points=[];labelBackgroundColor=#ffffff;" vertex="1" connectable="0" parent="POTDINpsIV9OcuhE6Ynd-224">
          <mxGeometry x="0.1943" y="1" relative="1" as="geometry">
            <mxPoint x="4" as="offset" />
          </mxGeometry>
        </mxCell>
        <mxCell id="POTDINpsIV9OcuhE6Ynd-226" value="" style="endArrow=none;html=1;strokeColor=#000000;endFill=0;startArrow=classic;startFill=1;" edge="1" parent="POTDINpsIV9OcuhE6Ynd-1">
          <mxGeometry width="50" height="50" relative="1" as="geometry">
            <mxPoint x="-1713" y="-1351" as="sourcePoint" />
            <mxPoint x="-1623" y="-1351" as="targetPoint" />
            <Array as="points">
              <mxPoint x="-1663" y="-1351" />
              <mxPoint x="-1643" y="-1351" />
            </Array>
          </mxGeometry>
        </mxCell>
        <mxCell id="POTDINpsIV9OcuhE6Ynd-227" value="Parse event" style="text;html=1;align=center;verticalAlign=middle;resizable=0;points=[];labelBackgroundColor=#ffffff;" vertex="1" connectable="0" parent="POTDINpsIV9OcuhE6Ynd-226">
          <mxGeometry x="0.1943" y="1" relative="1" as="geometry">
            <mxPoint x="-12.86" as="offset" />
          </mxGeometry>
        </mxCell>
        <mxCell id="POTDINpsIV9OcuhE6Ynd-228" value="" style="endArrow=none;html=1;strokeColor=#000000;endFill=0;startArrow=classic;startFill=1;" edge="1" parent="POTDINpsIV9OcuhE6Ynd-1">
          <mxGeometry width="50" height="50" relative="1" as="geometry">
            <mxPoint x="-1813" y="-1301" as="sourcePoint" />
            <mxPoint x="-1723" y="-1301" as="targetPoint" />
          </mxGeometry>
        </mxCell>
        <mxCell id="POTDINpsIV9OcuhE6Ynd-229" value="Index event" style="text;html=1;align=center;verticalAlign=middle;resizable=0;points=[];labelBackgroundColor=#ffffff;" vertex="1" connectable="0" parent="POTDINpsIV9OcuhE6Ynd-228">
          <mxGeometry x="0.1943" y="1" relative="1" as="geometry">
            <mxPoint x="-2.8599999999999994" y="-6" as="offset" />
          </mxGeometry>
        </mxCell>
        <mxCell id="POTDINpsIV9OcuhE6Ynd-230" value="" style="endArrow=none;html=1;strokeColor=#000000;endFill=0;startFill=1;startArrow=classic;" edge="1" parent="POTDINpsIV9OcuhE6Ynd-1">
          <mxGeometry width="50" height="50" relative="1" as="geometry">
            <mxPoint x="-2250" y="-1154" as="sourcePoint" />
            <mxPoint x="-1930" y="-1154" as="targetPoint" />
          </mxGeometry>
        </mxCell>
        <mxCell id="POTDINpsIV9OcuhE6Ynd-231" value="alert notification" style="text;html=1;align=center;verticalAlign=middle;resizable=0;points=[];labelBackgroundColor=#ffffff;" vertex="1" connectable="0" parent="POTDINpsIV9OcuhE6Ynd-230">
          <mxGeometry x="0.1943" y="1" relative="1" as="geometry">
            <mxPoint x="-120.83000000000001" y="1" as="offset" />
          </mxGeometry>
        </mxCell>
        <mxCell id="POTDINpsIV9OcuhE6Ynd-232" value="" style="edgeStyle=orthogonalEdgeStyle;rounded=0;orthogonalLoop=1;jettySize=auto;html=1;endArrow=none;endFill=0;" edge="1" parent="POTDINpsIV9OcuhE6Ynd-1" source="POTDINpsIV9OcuhE6Ynd-233" target="POTDINpsIV9OcuhE6Ynd-234">
          <mxGeometry relative="1" as="geometry" />
        </mxCell>
        <mxCell id="POTDINpsIV9OcuhE6Ynd-233" value="Alert&lt;br&gt;Manager" style="whiteSpace=wrap;html=1;aspect=fixed;" vertex="1" parent="POTDINpsIV9OcuhE6Ynd-1">
          <mxGeometry x="-2280" y="-1610" width="50" height="50" as="geometry" />
        </mxCell>
        <mxCell id="POTDINpsIV9OcuhE6Ynd-234" value="Alert&lt;br&gt;Manager" style="whiteSpace=wrap;html=1;aspect=fixed;" vertex="1" parent="POTDINpsIV9OcuhE6Ynd-1">
          <mxGeometry x="-2280" y="-1024" width="50" height="50" as="geometry" />
        </mxCell>
        <mxCell id="POTDINpsIV9OcuhE6Ynd-235" value="" style="edgeStyle=orthogonalEdgeStyle;rounded=0;orthogonalLoop=1;jettySize=auto;html=1;endArrow=none;endFill=0;" edge="1" parent="POTDINpsIV9OcuhE6Ynd-1" source="POTDINpsIV9OcuhE6Ynd-236" target="POTDINpsIV9OcuhE6Ynd-237">
          <mxGeometry relative="1" as="geometry" />
        </mxCell>
        <mxCell id="POTDINpsIV9OcuhE6Ynd-236" value="Elast Alert" style="whiteSpace=wrap;html=1;aspect=fixed;" vertex="1" parent="POTDINpsIV9OcuhE6Ynd-1">
          <mxGeometry x="-1950" y="-1610" width="50" height="50" as="geometry" />
        </mxCell>
        <mxCell id="POTDINpsIV9OcuhE6Ynd-237" value="Elast Alert" style="whiteSpace=wrap;html=1;aspect=fixed;" vertex="1" parent="POTDINpsIV9OcuhE6Ynd-1">
          <mxGeometry x="-1950" y="-1024" width="50" height="50" as="geometry" />
        </mxCell>
        <mxCell id="POTDINpsIV9OcuhE6Ynd-238" value="" style="endArrow=classic;html=1;strokeColor=#000000;" edge="1" parent="POTDINpsIV9OcuhE6Ynd-1">
          <mxGeometry width="50" height="50" relative="1" as="geometry">
            <mxPoint x="-2250" y="-1299" as="sourcePoint" />
            <mxPoint x="-1930" y="-1299" as="targetPoint" />
          </mxGeometry>
        </mxCell>
        <mxCell id="POTDINpsIV9OcuhE6Ynd-239" value="Configure alert rule" style="text;html=1;align=center;verticalAlign=middle;resizable=0;points=[];labelBackgroundColor=#ffffff;" vertex="1" connectable="0" parent="POTDINpsIV9OcuhE6Ynd-238">
          <mxGeometry x="0.2341" y="1" relative="1" as="geometry">
            <mxPoint x="-126" as="offset" />
          </mxGeometry>
        </mxCell>
        <mxCell id="POTDINpsIV9OcuhE6Ynd-240" value="" style="endArrow=none;html=1;strokeColor=#000000;endFill=0;startArrow=classic;startFill=1;" edge="1" parent="POTDINpsIV9OcuhE6Ynd-1">
          <mxGeometry width="50" height="50" relative="1" as="geometry">
            <mxPoint x="-1820" y="-1200" as="sourcePoint" />
            <mxPoint x="-1920" y="-1200" as="targetPoint" />
            <Array as="points" />
          </mxGeometry>
        </mxCell>
        <mxCell id="POTDINpsIV9OcuhE6Ynd-241" value="check&amp;nbsp; index" style="edgeLabel;html=1;align=center;verticalAlign=middle;resizable=0;points=[];" vertex="1" connectable="0" parent="POTDINpsIV9OcuhE6Ynd-240">
          <mxGeometry x="0.24" relative="1" as="geometry">
            <mxPoint as="offset" />
          </mxGeometry>
        </mxCell>
      </root>
    </mxGraphModel>
  </diagram>
</mxfile>
